<mxfile host="app.diagrams.net" agent="Mozilla/5.0 (X11; Linux x86_64) AppleWebKit/537.36 (KHTML, like Gecko) Chrome/133.0.0.0 Safari/537.36" version="26.0.16">
  <diagram name="Strona-1" id="ISIUIoG_bMzfklbL67qp">
    <mxGraphModel dx="1434" dy="1955" grid="1" gridSize="10" guides="1" tooltips="1" connect="1" arrows="1" fold="1" page="1" pageScale="1" pageWidth="827" pageHeight="1169" math="0" shadow="0">
      <root>
        <mxCell id="0" />
        <mxCell id="1" parent="0" />
        <mxCell id="JEBXCWIfqeOVVR91bjjy-20" value="" style="rounded=0;whiteSpace=wrap;html=1;fillColor=#f5f5f5;fontColor=#333333;strokeColor=#666666;" parent="1" vertex="1">
          <mxGeometry x="250" y="110" width="330" height="310" as="geometry" />
        </mxCell>
        <mxCell id="JEBXCWIfqeOVVR91bjjy-1" value="" style="rounded=0;whiteSpace=wrap;html=1;fillColor=#f5f5f5;fontColor=#333333;strokeColor=#666666;" parent="1" vertex="1">
          <mxGeometry x="70" y="110" width="160" height="310" as="geometry" />
        </mxCell>
        <mxCell id="JEBXCWIfqeOVVR91bjjy-4" value="packer" style="shape=image;verticalLabelPosition=bottom;labelBackgroundColor=none;verticalAlign=top;aspect=fixed;imageAspect=0;image=data:image/png,iVBORw0KGgoAAAANSUhEUgAAAJ4AAAEACAYAAABCns/8AAAABGdBTUEAALGPC/xhBQAAACBjSFJNAAB6JgAAgIQAAPoAAACA6AAAdTAAAOpgAAA6mAAAF3CculE8AAAAB3RJTUUH5QUEDy4HU+DjBAAAAAZiS0dEAAAAAAAA+UO7fwAAEGtJREFUeNrtnQtwVNUZx8mTkBBcMCSbveeKIlYBi4Ig2Gqto06KUnzUF060tkqr4tSRiq+xHWtFa5VBcu8aHaa2vlt1d321tYDvKr5QkVYF771bxUGqIA/lTXL7P8ldSCRQIDlnH/f/zfxnM4NC9ny/Pf/vfOfcs7165UgIyxsvbNcUVrq8F4OhDzzncYD3mmm7Fxq2OyjanC7hqDB0gPckoPOhVVACmlQ7y6vmyDB0gZfRUtNy7xWWO5ajw9AJntQW6CPoRtR+tRwlhi7wOiot4u5FqAPrIzPTxRwxhi7wMnoC9nsyNJCjxtAJXiu0DGo2be9YWHBvjh5DB3gZbYb+JWxnRv2dXowjyNAFXkYboHdR+52L2o+zH0MbeNtnQMt9Ea8nCcuLwIKLOKoMHeBltBa6ExZ8dLSZMyBDH3gZfQBdCwseBgvm9htDG3hSX0MvCMudAu3DUWboAi/TfvkSehF132iONEMXeB21HrXfn4y4N8Kw3EpYMBcgBE8LeBk5sN7roBEQ4SN42sDLNKBfgibzAALB87OgldAjhu1MYPuF4OnWlmD/9676Ju8A1H5MCMHTqlbTcteg7rsaP8dgwWXMDMHTqa3QfGG75xtxV8CCef6P4GnVKsD3F7ye3v8O1n8ET7/SsGAbFjySmSJ4urUReh+6CrXfAGaM4OlWC/Qhar+z8VrD5z8IXjb0mGG5DSLu1jCDBE9v+0U+/2u7NnSMaTm8foPgadUm6D1hOzcb8TSf/yB42rUOel3Y7iTUfpz9dhWRlF9M8JSsgJ+FToD98gBqV2Ek/e8ZKV9kG8ACAy+j1bL+gwUfAQuuJG0dwkz6z0APiKR/KiDch+ApWYC8C8nzf4ew/ZJJeNJ/E+BtgVz8bIuUfyTBU6KvTMt9FvXfpSLuVhG8dvD8QBsgz0z4l0dTfn+Cp6T5LM//PYPabzTB2w5eRpuht1D7NcaSfhQWXKwBvFQIwOtov6sx+90lbO/wmOVWhO4M4E7Ay+hr/PljUAMsOKK01rSdKfIulKAn5odIH6H2uxIQDid4O+pj6HaR8I/A6rdUCXiWUwIdjQTEkYyPA1sKC3zyw/YC1IgxiBK8ztoIzcd/fxVmv3p1luvuK++/M9vPwW0O2ez3X+ghfPh+YMTTfQjedrVCa6CXzZQ/UVlTe2a6GNYbRf1zHmq/xSGDT37YPoXujjYV8PVrewheRwA34f99FBoHC+4LC+7x51MN2yuC9dRiBrg+uAs5TPVfi2m5y0XcnYaf6zAOZQSvs5bh75gO+x0NlSm04NHtt4C21X9hmwFfggM04gNowIKLCV7n9ssC6ApY8H4KLbgcCTgLiUgF96GECcAVsv6DJhbEAYQeAi+jr6An8HeebaT8fkr2lvGJxyd/EKxnMpLwaggXIPL6jdthwSMJXmdthZZDD8cS/ggVtV/QfukNAA9AEm4Ivg0oTPDJ63ffg6ZiHPoTvM5qgVaj7mvCawwWrOTxQIBXEm1y94cFP4BEfBE8ExsWALcK21mI1f/p+Ll/Xt1+pRC8jivgRdDF+LcGG4oa0LLvBQgnBvXfihAuQO43LPc4WHCE4HXWWugpM+GfX5dUU/8FFhyDBf8MiXglZPWf3OnxoNswBkfKnSCC9432C/RHWPD31B46cEcBwF8FyQjT7CdPP78FC74GLlBH8DpLnv9bAk1H7ScUtV56xSy3CvB9BxDeG9yHHCYA17Td/2y7Z0ab01UEb8cV8GL8DpfAgutVHL/Hp75IWE4prOcYJOHl4OsIWkN0/Eo+gPSUYbvHG7bTj+DtqDlG+/GrGoX2WwVNDfp/60I2A36JD94MWPAIfBgrCF7n1a+s/2zoGABYociCSzADHopE3BSc/2sNU/tFPn4JXY4V8KCsPv+RQ+B13H5biN/r1ljKN1S9b3zqMfs5RyMJs4N6KEyznzx+nzQtd3zWVr85CF5G69r2fxP+pIii5nPQfqmBBcn+3z+DK2nDAp98r5/Ibz/CzNeH4O2o9dA8WO+JeK0WCrbg5FcO1M7yqlH/XBjY78aQtV+eFrZ3GMahnOB13YC28fseFVU4A8KCDVjwTCRjccga0HLvd1LM8vppefAoj8DL6AP8ztNEwh8KCy5RZL/lsN/joT8Et8GHZQGSxnv+9cBZXl+Ct5On36Bnhdz/Vfj0G6ynDjoNCXkyRPDJW++bMPPXErydt19WBPXfGIWHT+XzH0JYnvwKAjck8K035W6P5RxI8HYN4Fq8j9lG0h9qJPwKWLCC2c8rMeLOYFjRHcHx+y0hOHQwF+95FFRC8HYtJ3j8crhQdPuVPHZuWO73kRR5/m95CGa/f4i4MxrwFRG8/9+AfgH6KeAbqMopos3pfrDgi+SsEIIGtJz5DiV4u6eV0IN4fydFFW2/CStdKq8eE7YzFRa8sMBPP/8V8A0jeLt//GopFK9P+oNVPf+BhFTGLFc2YG8v4MMHW9pOucSdoQRvz45ffQHrvRLvt0YoOH4vm64Ar8yIu+Pa9kHbbwMttPtfNmG1e49he0a3m8whAW/bDIj3+zx0Dla/9VFFCxBYcAQQNiJRcwqw/tuM93ZLtMkb0C34QgZeRl/gfd+HmW/8vorqv8CChxh221eQvlNg7ZdVWNlPM7pzsiWk4GX0Id7/TNn/UwXfgDvScvtNHr+aEXwZS6HA9xlmvvEEb+8lr197E+PwC8yAAxS1XorkY4em7TUgWakCOv2yAGXFgQSve7sfsv/3Bma/UwFgv4iS41fpYmE5vWHBZ4j2m+DX5fke8FYsNhLRJndfgtcDAnh3A8BjDUXP/8qiHMW5gdlvRvDwUX4fKrCdG/Beqglez8yA8usXboKOUHX9Gma/huAUcL5brocZ/FQjni4leD13+vl1kfCviyqo/woIPF/IPV3bFQSvZyWv333OSPkNqP3KCV7XR+jlzV1QMcHrefuV9/89gjEbA/utJHg7NpdjcW8EwVMnef/fLbDg4dFuzIAFCB4s1/m7aTkRgqdWr2L8psCC99+b6zcKEbzgkszJWLmXEjy1+lJev4ZxnGQk/T4Er+1gxIuG5R5K8NSrpe32+4R/FcFr01osMqbtctYjeD3YeE74FsHbplfkHYVyu5DgETzdvb3pRtztS/AInm59iFpvaJfn9ggewVN5XF7eRwj4iggewdMry/XMrnYzCB7BU30drhF3ziF4BC8bi4y5WN2WEzyCp1ufGrY7luARPP3fvWa5vyN4BC8bX3vwnGk5gwgewcvG152eTPAIXja+6vT6bcfjCR7B06hHhO0JgkfwdOsd03bGEDyCp1ursbqdQPAIXjaayVcbca+C4BE83eDNNmxnAMEjeNrvVEadV0/wCJ5mOQuFbCQTPIKnWfKiokMIHsHLhoYTPIKXjQXGKIJH8LIAnncawSN4+sGzvAsIHsEjeASP4FEEj+ARPIJHETyCR/AIHkXwCB7BI3gEj+ARPIJH8AgewSN4BI/gETyCRxE8gkfwCB5F8AgewSN4FMEjeASP4BE8gkfwCB7BI3gEj9AQPIJH8AgeRfAIHsEjeBTBI3gEj+ARPIJH8AgewSN4BI/gETyCR/AIHkXwCB7BI3gUwSN4BI/gUQSP4BE8gkfwCB7BI3gEj+ARPIJH8AgewSN4FMEjeASP4FEEj+ARPIJHETyCR/AIHsEjeASP4BE8gkfwCB7BI3gEj+BRBI/gETyCRxE8gkfwCB5F8AgewSN4BI/gETyCR/AIHsEjeASP4BE8gkcRPIJH8AgeRfAIHsEjeBTBI3gEj+ARPIJH8AgewSN4BI/gZRc8w3ZHIRHzCR6lG7wyI+4NMW1nBhKyEmoheJRy8DrbbnqksNwUEvMZtJXgUVrAa5sB4041ZsFGYbtPBTNga0GCZ3tnEbwcAk9GZGa6xLDcAwHfFCTplYIEL+6OJXg5Bl4mos3p3qj9vo1E3QZ9WmDwDSd4OQpeUPdBXpWwnaMwAz6KhK0pAPuVC6hhBC+HwfuGBfeGBf8QSZsHrc5f8JxFwnL2J3h5Al4m6u/06pC8q5HEN6B1eQjfXMzgMYKXZ+AFFtxbWO4YJPBmWLCTT/0//L63GrZXTfDyELwO7ZcIEjkWuhdJ3ZAH4G2GGo14upjg5TF42wC03Ag0Hkl9NUhuri5AFqFMGNc+bRO8vAdv+wyYjqBwvzio/3JtBtwCWSgT+hO8AgMvE6blHAT7/T0SvSSHtt/S+FCcsr1QJXgFB177AsQtg05CwmdDn2e7tsNC6H7UpLUEr8DBC3p/RYbl1CLxPwKEc7I4+y0xbHdM508GwStY8DrUfqWwuRpY8CWw4KVBvaVvJWs5Z0Sb0yUEL2TgfaMFUwP4rgEQC6CvFEP3Of6tKzDbFe1YCxC8UIHXAcAhgOK64ATMBgX7sUvw9/8c/05V10UowQsleB0APByAyC24p6FlPbALsl4eaIAmCCtdufPVD8ELNXhB+6XctJ3BgOVE6Eb8vDd9wI3y+RERdxsNyx2EhU3xrpfdBC/04HVaBcedSoBXJ2xvOCD8CX5uxsJkHn725GzWUVgpv40/ewJ/dhn++xHy/6tvTpfuXr+H4BG8rDQaCR7BI3gEj+BRBI/gETyCRxG8HgLvYQzaRoJD8PQ2D5P+SAzYdLwugbYSIIKnb9ZL+NXQ8Ri8e6B1hIjgaYtoyi/G4EVEyj8F9ruAsx/B079xnPD7QVMB4LucAQme3n27lF8K+A4zE/5tGNR/EyyCp9uCKzGoJ5jtq9/PCRjB07f4SPlSBqz3XAzu82y/EDzdtV9ZfcLfDwN8BSz4PxjsFgJH8LRGfcqPYbAtaCm0ieARPJ0WXAH7bYDux8Avg1oJHkOnBddDP8bg/y3Msx/By077pQQD/y3MflciCe8TPIbO1ksvI+lXIAmHA0AbryvCZL8EL3cseBySkQoAbCF4DG1Rk2w7gDAZiZkHrSZ4DJ0WXALrPRjJuRZ6q1APIBC83G2/VAl5/i/pzzQT/gaCx9Bd++0DNSBZcwtp9iN4+WPBlZj9zkPS5kNfEzyGbgseBAB/i+QtyucZkODlp/3KBvRxUHOw/0vwGNp2P4piCb8Gs98EJPJxaDPBY2htvyCRAwHgBZCXL81ngldYFlyDhP4mePxyE8Fj6LRg+fzHGCR3NvQJwWPotuC+SPDZQf23huAxdLZeilH3HQBNNhP+27lU/xG8cNR+5VgBD0Gyr0fS1+fC8SuCF7KIpfyDkPgHoeXZbEATvHBasDyAcAYkz/+tIngM3RZsAoDLAMJLBI+hvf0CCA7D7HeTzvYLwWPI1kuRkfSrAMRRAOJxHbcfEDxGVxY83kz4r6ns/xE8RpdR177/e01w/H4DwWPotOAyWPBogHILlCZ4DN3tF/n027HQn3uq/iN4jD2p/WoxA55ptl+/20rwGLotuBr13+UA6L29PYBK8BjdseDBAEgev3L2dPuN4DG6a78VgGgiZsD7gus3CB5DT0RSfjFqvxjgO1Ps5vYbwWP0ZO0nr9+Q9z//EmCtJHiMbFiwvP9ZXr/7cVf1H8FjqLRg2YCWX7/1ELSS4DF0W7Bsv1wK4OZktt8IHkNLCHn8KukfDOCmmQl/MV5ncVQYOmu/PrGEPwwW/F2Oxu7F/wB2otiQAoFNPgAAACV0RVh0ZGF0ZTpjcmVhdGUAMjAyMS0wNS0wNFQxNTo0NjowNyswMDowMAlPrCEAAAAldEVYdGRhdGU6bW9kaWZ5ADIwMjEtMDUtMDRUMTU6NDY6MDcrMDA6MDB4EhSdAAAAAElFTkSuQmCC;" parent="1" vertex="1">
          <mxGeometry x="90" y="120" width="30" height="48.61" as="geometry" />
        </mxCell>
        <UserObject label="" link="https://gitlab.com/pl.rachuna-net/infrastructure/packer/alma" id="JEBXCWIfqeOVVR91bjjy-8">
          <mxCell style="group" parent="1" vertex="1" connectable="0">
            <mxGeometry x="80" y="200" width="120" height="60" as="geometry" />
          </mxCell>
        </UserObject>
        <mxCell id="JEBXCWIfqeOVVR91bjjy-3" value="" style="rounded=1;whiteSpace=wrap;html=1;" parent="JEBXCWIfqeOVVR91bjjy-8" vertex="1">
          <mxGeometry width="120" height="60" as="geometry" />
        </mxCell>
        <mxCell id="JEBXCWIfqeOVVR91bjjy-5" value="" style="shape=image;verticalLabelPosition=bottom;labelBackgroundColor=default;verticalAlign=top;aspect=fixed;imageAspect=0;image=data:image/png,iVBORw0KGgoAAAANSUhEUgAAAQAAAADsCAYAAACbg3grAAAABGdBTUEAALGPC/xhBQAAACBjSFJNAAB6JgAAgIQAAPoAAACA6AAAdTAAAOpgAAA6mAAAF3CculE8AAAAB3RJTUUH5QUcCxAHgIEv1QAAAAZiS0dEAAAAAAAA+UO7fwAALMlJREFUeNrtfQmcVNWx97CIC2pcE40mktDn3HsTYz63xCxGpgdZJIIi7oogiCzzFEEUMCCibEZAQQHZhukePvLi82XxvWdi8mV5Mb6YvMQFJOzMTPdMz75290zPPbfnq7rdkyDM0j19b/ddqn6/clSGmdt1q+pU1al/VV6ezahxxLCBAa88DPj2cq/8LPAz8O+3wtdL8c/yiIhMpnKv8tmgVxqBuldeIK+Er5PhKyf9M9/4BwUK5PzyAuVd4M5PsVf+OfzZt/B7SFJE5hm/zMAB7C7zKtFP66C8P+CVRoVGyKeTlEwiEPBVIOw/AcdPcQAFigB+G76Hk6SITDL+z4OOFQHHutE/dAJ7IRq9kSRlzul/GnjdFSDoSPfC17kRXtIT8L2DSWJERlOZV54COlbdi/6BY5C3Bkewz5C0jPe+Egj4tz2c/l2Mf/YmfO8XSWJERhIaNRj3FtAvrRf9Q/4o4FW+SxIz2gEUKPcCh/oQPnIp8GiIAgaQ1IiMSz+Vb6Nxp6B/EYgU5oLDoIKgccbPzwDBrkxB+DoHCuRFFfn8TJIckUGn/6DyRPgfSU0H5V3l+dLnSHKGOQCJgVB/kaoDAP4P4MtIckSGnP758oXlXmVrGvr3UVmBci1JzrDii4JXf1VpvICGYIH8TUgDSHhEBuifLIMDOJSG/kUhZbgnNEKmK2kDwv8z4fR/po/iX2c3fQELgOkFEGUa/g8IeKWJoFNqevqnbICD61ySYMYOQL4EBPrHtISfyMP+H/AQkiBRhtHnaRDOv56u/sHfCcDXL5MEM3cAN4Ag29N+AXqnlkTXgUSZRQD58vmgTxXpH0BKJ6QBk0iCmTuAVf0RfoKlfyEJEmWkf17l5v7qH0QBPyIJZh6C7ev3C/Aq75AEiTLSvwJlW/8PIKU2NEI+n6TYTwqMlL8KQmzL4AUEywv4VSRJov4QGO+FoEOHMtA/FQ6hCSTJ/joAr7I0CfLp7wsIQwqxiCRJ1M/oE7tPGzLQP2wb3kIw4f4UX0aws8q88m/Tvv47CRsAL/EtiALoOoYo3dN/CIT/u9K+/juV91fkc2pKS/v0z5dvTPb1d2bIfy8vkEaQRInSoXKvwpPQ80z1DxvY7iaJpv0C5KWJED7jF9AIkUQhSZQoLf0rUO4ALjNA/zqANyGcnaSaeviPxZd/zzD8/2ce5pW3EEabKFVCYw0UKKsMCP+7+PcIZyfJphr+e5VbQGiHDRJ+F0b7WyRZohSjTxl05lcG6h/C2O8jiHpqp/9p8AKezvD67xSMNsI5EdZJEibq4/QfAKf/eNCZSgP1rxN+5vqKfH4OSbgv75svXVZeIO8xUvhJcMZWhHWShIl6PYC80tBAgfyc4fpXoPwO+Csk4T6orEC5IVG5N9wBHMLQjiRM1OsBVKB8EfjXJjiA2jKvUkAS7oVCI+TBkKtPTlZOjX4BKsI6aVQTUW/hP0QA30U8vwn6pyVg7TSpqufT36tcABHAbhOE3xUF/AQcDEGEibo//b3yYNCTNabpnw5rly8hSfdAYJxympN/0gQHyQ3BfPkCkjRRD+E/zp780EQH0IbwdpJ0jx5YechE4XdFATeTpIm6dwDSV/ozeyLNQTWrSNI9FwD/02wHgPBOkjRR9w5AXmi6/nmVT0jS3RcALwYBtZgeARQoh+B3URpA1F0N6o9Z0D+IMPj1JO1ThT8tQ+hvyhOD4XfdQxInOin8HwG6UZMF/cPbgBdJ4icQbvQt98pvGtT73/eQhgJlF0QBBM4gOjH8X27S9V93acD7CHcnqScp6JWGg2AOZkP4SX4f4Z4keaKE8XNMP9/J0gGEXBbIl2l/4D9fgF79r82iAwhBFDCZJE+UPP1HGww+63tSlVdeSpJPhP9DkjvXRRZfAP6uVyANoDCMCOtPi7IV/p+wxfrfEfZO3tcrXwPC+HMWhd/F7xA2gCiYzz9Xbmb3ac98OOBVxrr99B8IgngYuC4HL6ASYZ+E0Xb7AaTcZAr4LJWuQK/8NMLf3Vz8w60rm3Ig/K414s8h/JPMwKX6l5g98ajBsyfS4TcC+fIX3Fz8uwr4f3LlAJKwzyvIFNxJAa/8OYgASnKof8fBAd3oZgcwLofeV58UhPBPSgPcWvyTvwoOoCyH+ifAAcyESGSIC42fn1NeIK/NofC7eDXCQMkcXFf8GwQRwPQs3v33xCUIg3ehA5Avgw//Nws4gL2VXprV5sLi3+nA71hA/6rgORQ3OoAC+PAxC7yATkgDvkkm4bL8P59/IUvgs1Qg6g+50QFstITwExjtJWQSbosA5Duton8Ig3dhAcaQtV9GgTP+SCbhMv0rUH5knQNIaUU4vJsKgGMM3LpiBNfAM91EZuEOqsiXcfJvwEL6J+AQmu6m8H+TBaqvJ3IU4aBkGq6JPrH632wh/YtDRPJfuJHY+cWXkfKFFqn+nwzOeAeigIvIPJxNYGQ4+HNPlsFnqfDRcq/yNec7gMTevwqLCb8zAQeVR5OJOL34p3wN3vVfLah/iIeZ5oLwS16ZZehlymkAwkLJRBxf/JuRI/BZKhD1IoTHO1b4wXx+OXzIX1pQ+F3XgT+HNOBLZCaOLf6dB+95h3X1T/kzwuOdHH7dDh+y1MIv4Ag4gZFkKo4t/l0N7/g9C+sfTsWahjB5553+I9jpOAbJKt1/vWC0Z7oao+1QQqMKFCh3WjT8P5E3IUzegcU/+cvw4d6yuPCxLbMEYaJkMk7TP+lcHMdtef1LwOOvcmLxLx+n8NjAAZTBs15JJuOw9LNAwQPoXRs4gLZAgTzJUWlAIJ+fAaH1Aos1//TYE4AwUYSLktk4g6rzPQOCXnlsYimH5fUPeTPYy2ecVHy5uKxA+alNhN+pw0S9yhlkOk4pPsunwXt91Tb6V6DsB3bOqLCAV/k6fKB6G72AZoSLkuk4g0Jefp7eaWcf/Ys56jYKTtM5NhJ+YmCoV55BpuOYAnSB3fQP4fLOSQEKlP+22wso88q/INNxTAHwZfvpn1LqCOFX5Mtfgg/UYT8PrAQr3Dyy2THGz08HY9pnQ/0T8Oz2x6aA8OfZqPr6qTqAqzDajnUA0i02qz+dgFCVN9m7+DJCPgs+yG9sKPwucMYehI+SGdn6AHoJ3mO7HXUQnv1DiAIusXPx73p9+YE9HUCnDht1A0bbueE/Tp7+nU36T7qfGFwg32nn4sts4AYbO4BahI+SKdlV/+TxNj+AYhAFvGJL4Vfne86GD/BvNva+XZOCdlTkO6gryz2n/2AwnpU2LUB/aos1wuhtGP7L34aH/9Dmwkf+CyjS9WRStiv+SRABvOMA/StFGL2thJ9c+43hf5MDXkAr8JTQCJmwAbYq/sk4ebrMAfoXQxg9wultI/yAV7rY4pNX0uW1AS+lAXYhXLYJRvO4xWdPpMNvIZzeTsW/ay06eLG//AeEk5Jp2eUAUi6DsPlNB+lfJUQ0XrsU/wYHCuSpNm3+6Yk1hJMirJTMy/KnP4b/14EDqHWQ/iFEfWEwn59ph+LfBfDAPgcJv4tfhc82hEzM4qd/vjQYjGWe4/TPC1GoV7nUBsUX5YrEcE3HOYCjCCslE7P8AXQmGMq7DtS/1nKv9A07XL9MsNjePyMhwgVkYlaPALgH3lXEifoHzm2uDRyAvNORwk/wK2Rili8Azneq/iGs3uLGr0Mv6xzsAEqr8z3nk5lZk7BXo8wrv+dg/euoyJeHWTn8n+Sw6v/J3ABh2EQyNYveAOQrEryjkIP1T0N4vZULgLts3vvfF7cjvJRMzaL6V6A8nuzc7HQw/wYiHetdB0L4Pwwe7hOHCz+egJfyy8jcLBf+D4V38xOHR6Bd2IDrLegA5AeTu806Hc7HEWZKJme56PM6eDcfuUD/WiHSWWyt3GsEGwQvYEdyio7TX0BHAmZKi0MsdPoPAKPA6n+zC/RPxwZU5MsXWujuVcK719+7RPidCZipJJHpWab4h+Cz3e7RP2UfHEI3WSf898p3w0NVuOgFBOEFjCPTs0zx7zvwTj52kf4hzH6OJfYHQvh/JjiAFU7t/ut5YCiuOudDyfxyHv4PhvfxqL7a3T36h7wTYfe5D/+9+t3rr1wmfEwDfgl8BZlgzqPPC2y298+4gbUFyrW5Pv0HlHnlcTYf/NlfB1ALn/16hJ8S5YYgBMbZE4pLqv+nNAUh7L46f/jgXBb/zg545RdcKPwucNA8hJ+SKeaGKvP5QHgHd7pV/3TYPURAuQy/Li/3Kn9x7QvQMdrymWSKOdK/AuV0zIVd7ADKggVy7m6jAl7pe/AQURe/gEggn1MOkKsCoJdd5PDe/1Si0Mk5jACURW4WfuIFKPPJFHN1AOmLPzpdzm/kRPide4YNCoxW/hq8WelwMwdulv9QdQtWouWLiLPHgZulC4OjlF2kf0qVWD08+6Pq4iVfvjK6kP+p7RF+sG06P+JWjk7j+2vGy2+DUn5InD2uHCP9LvowP+Bm3dN5Lv9f8apnQtYdgPCzpWInrxOLebX4F97pWi7kHc33S0cpFM0uN9wp7VcLeczVuvc0rxfbeFD42K5sh//nCD9/D1gVm+EBngJH4N4XEY88LLVAKBYlw8wet07WDx7hWr2bzxvERjR+sEE//wR4WNYcgObz3Ai/MADcCQ/QIdbxSvEEb3Xry4jN5E1Vt8plZJjZ4cqxchWkns2uNf65PCLWgPEX8zbdBv28FiLyB7N1+g9U/Ww1/NJo8pejE2gTK1mVeBycgQtfCISikYa7pWqHT0OyDNfdIZWpc3iTK43/MYh6nmMhMP76f9ifH/6fj+2Er4OzUfz7PPyid0745V1OoE4shYdyqVcOT5Eag6PlZjJQk69dRyqx5gekVteG/4t5jdjJy0+xPz//M/A15hf/fOxm+EUHunmATlEEacEC5sqiYMcsXlV9q1xLRmouh8bJ1e0zIOV0o/E/AWnP690aP3IN2OZD5ob/RcMGwS+aDxzu4SE6xUZWCg/qxvCsvf5OqbF8pKtg0Vnn2tvlFleG/4/xmFgLh2tPdufnGvCazt3sTDNP/0vhl+zu5SE69cLED3kIHth19YDIFH4sONrxU2lzF/7frEQh/A+CrDXXOYAVDIt+0V5tz89/pfqZbNbpDw6Af6fH8P/TTqBZrNCdgKteFJxMVRCiRshYTav+t8Zm8mMuO/k1sQzCfuy58fN4H7ZXDzY6DqIA47dYa8XDhwg/K+zT+Lt4J68SSyBXe8xdxZq6SVLABaOpczKSvXq8HMFUy0X6pInFrEpsBU7V7vz8Ba2EnW1C+M8vBn4jjQfpFFsgCljAG93kAKIP872Bka6Yjpzt6r9ovl866LJmn1axUe+3UdOwu7+AnV5uQvMP+yr88Oq0HAA++AZWLh53j9eGNKAhOFpuI6M1PP/XOma7KvyPi3X8KNhQJE2bi2ol/HtmFABnpfkgXdwmVrH9bvLctROlv5PRGstVt8ghkK17CsvPsgNwkof7Z3NsnRkpwK/66QCwPyAslrIjbqneQhqwn7oCjeWWydIHbjn51cUsIHakffKf2JRX2rmbGdcVCD/0fIgAwv1+IOSt4AQW8lo9tHF+U5CoGCPXkeEalv+3x2a6pMv0SbCTTaw5ea/fX3uLx0vY9QY6ADY5hSuIvrhDbOTV8AEjLsAGxBCuSsZrDNdMkI+oc1wQ/s/jUbGeh8BW2jO0tTjC9Y3M/9/I8IG6QpOoWMdLxVzHFwW18BSpvnyk0kEGbED4/6BU5vj8/3EeE6vYcVHMWw2xNT9/r3PPsLONCP9l4EMGPRQ2CUXEC/yw01OB9kd5S2icHCQDzrj6H45Ok8IO15e4toQHRBFrMMzO/DyAsH0jwv/Z8MMaDXwwcAKsWVvMy5z8UrFfve4OqZSMOOPw/3jHLIf3ksyHnH+XfsUeN9DOogjbhyhgQCan/1kQ/v8ow4JEt6xuZ4gcdHJhRyBsNUBpQP95pCIa75XqRCFvc3DeHxZbDIywP83vIHw/k9P/BvghH5jycDhJ6BV+HATg2MkuCFtF+CoZc/+4YrTcGJnq4Oo/TvZZy0t1WzDHARwBGx6XSfFvhuHh/8nIwdU8JB53pofHNADhq2TM/ePq8XJdx2xe41h47/OsWhT1ifDLhNvxNgDSgPTHhnfuZmfDD1hvcF7SHWgoIpayZoc2CWmQBlTQwNB+hf8dDXdJmPurDp3s0yJ2sDrT7cvP3tR8ni+m7QBUP/t6cvJvp8kcFztZUDztzKGiCF9FGCsZddrhf0t0Gj/iSONfAGnvVnbMjNpaN4wtxd9BOH86p/9A+IuTgFuz8ICJouA2dlDMA6/owElBNRP0NIBag9Pp/f++3KoWOjD/nwsh/0Z2IFt2lYwCChHOn3ruX8LOTYb/nVnl9ewwCCjsvIGhfB9BhNMK/zUI/0sdmPerYpU+0689q3aFMH4fvzgd4M8V8Bf3Zt0B7ALjX8HKdUE5qRg4mx9HOCsZd+rY/7bpfJ/jHMAyViWKeFPW7crPqzUfuzJ17H8JH6X37mf/QeNiB68RS3mVw15+B8JZybhT4+BoOSIKHRYJLuKVYiuvylLe300UwGalUwDclZOH7HICWzgWBWuc1CmIcFYy7hT3/t0lfeQwhF+9eA0cQK6MP5EG/LqzKIWuwM7d7Cz45pocOoCu8eKVYp5zkIOxmbwOYa1k4H13/7U9wo86aJZ/VLykz/TryLFNxbXi4X1fB8b9nu+ZfzeZEsfEGlYjHnNGFIBwVoS1kpH3Ofk31DHbMTWguFjJsNOvyQL2hLcBM1Jp//2hNR5WD1taxLM6aMgRdYCWBwkc1Bc33u2gtd+LWLnYhYs7rWJP7I2+Fn+eB9/4N8s8MPJ2XgeCdMKVULxtutRSMUppJEPvMfyPRaZKLY6o/cwHw99iYht9//gwwvt7W/s9Dr4hZLGH1sRrkEM9af+mEAhtG2snysfJ2Hto/rlVLsVV6w5o9mkTr/AqiGBVi9lSI8L7ezr9B6t+9qqee1vroRP1gPUgUCyo2Fs5Yk33SU3l1BTULdffKQXVOTbvBsXJPi/yiv5P9DX5ME3A+8/qpvg3fBj8wW8t+NBd9YAmsYoHQMC2Hg2F8FaEuZLBn7r3r+VBqcnWoDBsYFuOk30gWrWqHenwfnZDd8W/O+APyyz84DhevEEs4UE754gIb0WYKxn9SWu/vy9Xtz9q67XfcbEY0udtFir6dc8NCPM/Ofw/AxzAijRXEOWoKMjqxDzWYGNFURHmSgNDT1n7jd1/9kWEzmUR8To7ntNmn5QnBvNtwBedWPzzgAP4L8sbf/IDqJtYGaQCtl06ijBXhLuS4Sdbf0cp4daHJPvOiMQFuOsZYmeETWzob2Dv13Wt/R4A+XWB5cP/T9cDYmKdjhy05SQhhLki3JWMP9n8c4sc7pjFy21q/B1iJT8sii1ZPO+JEeY/CWH/eVqxB8P/BTZ6+K56QKtYri8etWXTSOPd0nG6DUis/Ybwv86mc/81sYTXi+2mjvUyi9cj7B+hv5cAv2XDD6CJbbxOLOYNdqwct8/gBwM3kwMIjFTUyFS+15an/1NwCG3Wx3ppNrSfvQj7x7XfV8N/NNvwA3TqOddmXirm27A/oJC3VYyVG+j6T9HUOTxgyzVeG/X13TGb2k5MK+GjcfZ/oU0/wD+cgLqR7bNjfwDCXl0/+fdWucx2ERze97/ID1qw0y+9MXx+vhGx//9mcweQ4NXwQmw2SajtEY7oQFdPCgpP5R/bLu9fxo8JH4va3WZUH/soD/7xZ0c4gCLWKpaykH4lY5+mIFE5Vq5y7fXfzUq4Y6bN1n4t5jVip47v73QANzrHAWAhZis4gEX2WSSBsFeEv7q4+eegrdZ+P8nrxCYetNF9f1/chCnAmw75MIl1YxtYuZhvm1MljvBXhMG60QG0TpaCtln88QRvEWt5pYlrvHKRAnyMtwArHOMAEk5AiBd5lV2ahBD+ijBY1zX/jJZr2x6xSesvppXPsyZ9lZ2TbAUOf3QA12RzAUiWuFksZ9V2aC2FNCAMaUCl2xaH1E2SynB3oi1APtjs4+N1DrMRiGTYRGwEuhj+40cO+3C4eLRKLOLVdjhhWh+SWoKjFPe0Bo9U1Ob7pWZbdP89xWrEDhu1yafO7wJfjlOAB8G/jEuOC3LWh8Tx4gusXxREGGzo++65DagYI9dFp/FaG+T9TWIjK3Wg8VcDPwg8JLkHgA+FcOAx+B9VjqsHvMwq9Bdp7a7A1tqJctgtDqBmglzfMdviDgDXd7/IypyX9+vp/ktaMbvo5IEgCAqa6zgnUAwfeDULWhw0FG+dLJUhLNYFvf+xxnukekt3/+Eo+uchetzFGywyIt+w2hgc9q9oxZ4LelwSAt8wEb5xvwUWGRi5c7BGLOMVVm4SQjgswmJdEP63tFt58cdjOsKvUuzUw+ROx/TI+PkROOBnguGf0fdykBL2dfgL/5qYIuoQIWzjIbFQDzutejPQgbBYh98GxKvGy81qIW+2rANYADq/iTnJ+KNg+L8A9qa8GzAxJIR9EXLoRcnioDPCoNfAAVi4PwBhsQiPdfLW36b7pMOWDv03sIAtRuOlxiGI6NeIEiZ17hk2MC9dAidwjuZn4+CH/MkhAhHaS+y4ddeHsRonrxHH+QexmeyIZR3AKnYIdMQhRT92DPgesN3z8zIhvCaEH3Kh6mc++MHtDigKhtUV8KIfs2QRKl57h3OxAZXjZOzLENZs9mGH9SlT9jf+GETuv9R8w7+k+j2D84wiXCYAHuVR4L/bvkC4g7eIJTxgxaIgwmOd6gCa7pU+sKTxL+Q1Yqs+2cfOqS6mLUcgYl+s+Tzn5plBnUXDBqk+htuDf5IoLtg3FRCbWZV4Wl83FrfYbUAjwmSd2P3XPsOCk3/m87DYyKtsfqhh2vJL4NsgYj8rz2yClIDBL1ti81uCNrGBl4l51ioKIjwWYbKOW/wxTi633NrvuZDSvsRLLbrGKx3jXwsp+pV4QOdli8DTDBU+9gD88gM27hSMijXsgMXqASrCZB0Y/u8XVlr7je/8BX4Ea0I2Nv5SUeKZA18vyMsFacWeweAE/o/w6wsHIzYtCnaoS9hRK6UCCJNFuKxzqv9yNDJNarOQjOM6yGcXa7Ivko//GiLxb2slw4fk5ZogGrgAHuZpeKhD9iwKslZQiGYLpQFNdZOkUgf1/h/rmGUhPMaTrEHdrt/329H48blXqn7PJXlWI8hDxsDD/cGGjRRCbOIh8aRlVlN3tDwgNQacMSlIa7xHqoHw3xqj25/greIVdsyGk31UfaWXj98Huf6QPKsSpANfB34NHrbeZvWANrGOlekKYo00oLryFrnG9r3/o+XGyFTJGstcH4d3vAoc/S7bNfu0gE2VaD7P9/KsTok2Ys9FkBJgceK4vUBDkAq8wC2BHIQ0oLbmNrne7g6g6lY5FJvJKyyzxmun7ZbgBCCyXqT52RX6Lj+7EDiA07USfdzYb2x0xxoXRSwkFrM6CxSsMHRusHkaEK+7Q4riFiQLrPEKix0saKNmHwGn/t/g60jI98/sEb5rg4gAOwjXwAeptM0OtV38qBXqAQibRfisbef+j1ZaIlP5MQus8WpVX2d2uq6uU32sqHPPsIvynEDCx84EJ3A/8B9ts0vtNXACT+TWCSBsFuGzdoUIh26RIx2zwfHnNu9vF2v1HX52KfTthej5ceCz85xE4M1OEyXsOvhgO+FDhm3QH6CKNaxSLxzlUIGb7pWOBOy4RnykotVNkkI5nfuPq+KeZxUQ0UVs0tH3Uzgk9ZA/z6mk+tnncTIJcKv16wEQATyn1wNyuDeAHbHjGnF4ZjU6Lcdrv3/AK8R2XmP9vJ+FBe7n8PEvQ8o8MM/pBB5uiPB5vgd5zocW7xmIgwJV6vvgclcUFAijtV3+P0pRRSFrymHRr0afCm3tupOAiPiQVsLu1nyeoXluI/jQl4H32wiCqLW0l97MSsUCnrO77JYH+Ad2cwANd0sf5bDoFxUv6zpl3YPFz7EN2Q8H4ZWuOPV7aSM+FwQBKQH/q4WdQEys5+W56g9of5TXlNtsVFjbdH4gZ2O9Vuvbe2MWNv5DcPDhuL1L8oj0q8LTQCDfBYH8zMIvLiJW8NIcrRFXQ+PkgG26/0YpTR2zcnSD8iw4ap8+ztuqp//vIfUd27ln2Jlk+ae2EXuAX7BsG3ERPNcSnv2ZgoW8A+G0ttn7d4e0Xy3Mwdqvp3lAbLfsDj8sem8AvoosveerwgGixHOW6md3gqD2WbCAExdb4HR5ildlfY34NCkauFlus0P3X3iKVJX12X/zwfBf00N/q+mMprfE+/gszec5D1LeAWTpqd0UDINoYHcCCGGxFs0NrBYUriWbNwMIp0VYrQ2afyrbZ/BwlhF+UbFOh/dGLZc2+tlPhY9dTRbdv9rAGZAvLQNBHrTYiw2Ll1i5PlIqe2lAFGG1CK+1sgOov1MKqHOymP8/DqnGCsj7d1ku7y9X/fxFOPGp0JfhVeHpmp9NwAkolioQosItZ6XZHCeGsFqE11q4+aet9UGpMYvhf1ws4RVip6WMXwC/DzwZUlkq9Bl0VTgYnMBXkz0D1kkJdvIWLYv1AEgDQtXjrdsUFBonV0P4H8pe6M8iYhuzUtEvCuG+H/QUUbCnk+UaPWfAz84BAU+Gr1WW6RnYwivFXFDELHUF1t8lhcstig2ovV1uUAuz1DAFkZf6GqRh1tADfIYwhPxPQsp6nm2hu7ZJC3YPv1JNzEG3Ap5AFRsgFchSPQDhtQiztWL433S/VJsthJ/6EjsgfJZICbHw+F68hN1AlpldUBG2Ea8E4Zfl/BTA0dKreWk2Fo8ivBZC7Yjl1n6NlVvaH81CjwR2Yy5nZRZY4xXXZ1z4+CatmMl06ufmqvBccAJ3wYv475w7gR28SSxl1VlYN6YizBbhtla6+6+eIDeJQtOv/zSxmNWKrTrCT8ux8e/VV+X52MVkibmtDQwCL/wVHJqY84aPraxKPMUaze4PQJgtwm0ttPZbbXkgC73/83lEbIZIK/cj5t6GFPS6zt1U5bdOXcDPPgsv5onk3PR4zq6ANrP9+t20qT0BrCk4yjqFwCA4o47ZrNTk0F8V69gnOYSPx5M3UD+E9PMLZHHWjAYGC7/Hm1yUmLspMKioJiMHEW5rmcm/4+WA2ZN91BUsl2O9MOJ4X/Wx8ahjZGkWJ3hZ2Eb8Us5ARbsgEniOV5lZD2ibzg9bxQGEH+Ifm+oAlkBqVcTCOQTx7ISQ/1qyLDtFA3uGnQ0vbRa8vA9yM0mINYtnWL2JtwHRirEWWBwyUonFZvJG04x/ITjx13l1jop+eMO0GFffkUXZ8paAnwZ8E0QDP89B7qiKzTwonjKnMUYt5LH6O6W9Flj8cVSdY9Lgz/ngWDawQA7WeIGusN/A752gFbtwVJfDrgoHaj7PpfAyl+O89SyvG1PFel4qnjDlekyEp0ihXI8Mb75fOiDMwP7jNObVPCCKs47ww0LfDq2EycLHKN931E2BzzMaXi5WktuzqFDtYg0/bsbNAMJuQ2PlytwN/pRbotNNKHbiWK/nGIb9zSK7uP2Dqp/dT5biZCdQgqAi7stqNOCD37WEBU3YH9iC8Nuc9f7fJh/rmG3C2u9FvEbs0if6ZnP55lsQLX6DLMT5V4UDEtOI+Xzgv2etuLQNFPppw5FyAuG32Iefg+KfaLpPqofwv93gvL8+Oc47a7h9CPWXi2LPMGrndddV4VCtxDNS9fN3s9I45ANHs5FX6QpubBpQFcrB3oCKMXJd5GHJ2KUpc3lYrGNVICuRpcaeDzU/mwgHwmfIItx5VTgIHMDngDdl5ZYAq9kvskZD6wGFvLluor4/MKsOoGaCXA3hf5Whwz1WsBodWJWdKv+bYPgenDVBlkA3BUNAIR4EPmD61CEfbxYreK2RTUKQBlQGRymRLPb+dzTeI7UYWPQTYhnHHX41WTD8I8BzIew/izSf6MTawCBQim+Bkvyr6ctLd/KQWMIqjAINxWbx45W3ZG+NeMUYpSU6zbC133GxkNfpQCrzcfu/ECVsNER+Q0jjiXq6KvyS5udLQVkqTFXIrSwgnuR1BqUBYYTjZqsnIDROjqpz9H2JRuT9beJVXmn6EFc/W6362VdIw4n6jgZ2s6EisZvgQ1PD0VfYUQh/DamiIxw3kI31YSMV0XCXVGbU4E/tJXbc5L6MUojspkCaR4U+ojQigeLhg0F5vgaOwJ/c3W5GPSAq1vAjRqQCCMfFjbzZWPvd9gjfZ0Tory5nB0ws+gl4d2+D8d8gioefRhpN1N+bgrMhdJyX3E1g/HVhEW8Wz/HjCHnN1KgQlpuF67+IKGTRjCf7LOEBscOUCc/xJIhnGYF4iAy8KeAjkrsJjI8GtvImsYg1ZBoJICzXbAfQeK/0YcZFv6dYk9ikj/MWxlf5+f/AyX9HZxEV+ogMdwJMAgVbD1xleLi6EQxifmZ99bGZvAFC9LCZDqD9EV6W8Rqvl1mZCY60GQy/CEL+60lTicy6KhygFbMLQcmmg7LtNbiNuF2sZ0cy6Q9Q5/COmgnSQROr/4GO2RkULfGzrWSHTcj7y1Rs7S7xXIoLZklTicy+Kjw9XsKuA6X7D0MHVPrAuJ5nn2SQCqgtD/JSsxxAw93Sx5ms/dYW8yAYf8xYBB/7X4jMbqI1XES5iAhwlfkz+nx4o6KBItasPcODeqGsPxODp/MYwnTNmPwbmar3/vdvF+ICyPt3MiNn+deqPrYd3wFpIlHOCBQR24jvAH7XoPXUmnid14in+jdmC+G5CNM1fPLPODkYe5S39hPh1yI26Wu8hEGFvo80P3sUIrEzSAOJch8J7NGnEV8NKcFmUM4mQ1KBV3i5bjjpdwW2I0zX6P2BDXdJlWp/Fn/gNKS1CLk1pOiHtYMfg/GP6NzNqMpPZLVbAn4JRAKzkilBpuvGcCRWUB+Nle7+wIeluooxcr2Bc//DrZP1td9a2mu8nofPYMgaL0gh/OwHwIjbH0jaRmRRJ+A5XfOx78CJ95eM6wK7IGfGdWNpGh7CdBGua+Dgz1BsZtrDTOJiEasTRSyUYQNVHBzrMa3EM074GA3oJLLNTcGlcFqtzbRAqPrAgJ5KP/dGuC7Cdg1wAFr9JLkZfmYk7bx/BzuUYUdfI/A2cAC0iYfIhrWB3excUOCHE91pGUQDr7OjYFBNaS4OOVoxRmnOfPCnEg4/JAXTRPhFxAZ+JMMBnfvAgc6DiIraeYls7ASKhp2m+tk3QaH39HvYCI7IWssq9JFZqe8NaKr6vhzLeO33LXJrbFYa3X+IaVipT/bJoOKPIB5egLIjDSJyBIFSXwH8HCh4qJ/rxtrEC7w6HdBQw11SIMPbgHjNbTJiFFLv/lvG6sXOfhf9cJXbes1HuH0ip0UCe4YNECXDh0I+exveY/ejMBYHw6oVS1IfKoqw3UzWiGPzT+vkNKC/i8BBbdMHqWj9yPdxVNd0ze85H1Inauclci5BXjsMi1vJIld6p+R2XioWgiNIpV24kEUrxsjRfuf/o5V2dQ4LpVTxX8AbxGYd5JPuqR8Bw38DvsqkGURuqg2cAXnuguScgfTy5VdTXzfWeG//14jX3CYdS/G+v12s48f7UeM4DhHRaoiOziONIHIdaT7PEAh5x4sEqCiShuHExIusXDzWNzAH4bv9dQCRqfyTlBzAChy7ldYaL3R474Lx3wNMHX1ELo4EdjMcPcbAEFYmi2CpFgWbxHPsaApNQe2V4+Rg2vn/KKU5NiuF/oPFYPxFaa1ZawVnsV34PdfgOHbSACIivS7AzgHjuAvy4aoUC4RxsY3XioUs0Ac2AGf470vXAdRNlD7pE/q7gFeJzZD7p17QDGs+VggO4Hxaw0VE1F1aUDz8MtXHfpZcU923UW2C0HuB3iTUU1EwHn2Yh9PsCoyHp+itv6IXkE+beBn781OqX0QgwvltvIRdQ2+YiKjPaIB/Fozm2cTVWJ8Gpop1rA4MMtbLqLCWqlvllGsBFaPlhrZHegEhzYXftUZvcQ6ncL0XTNztezx06hMRpV4bOEtL9Az8rk8ngAW4VbxMPNY9aAhhvA13SRUpr/2eqK/9bu6h008Ty1mp2AXpR9/tvB9CSjMFvp5Pb5SIKF0noK8rw90E+vLS9j6Lgj/gx3saw41w3mAqA0NHKmrz/RIaf7cdhxquON/BqlMI+38Mkcw3aA0XEVGmdQE/u0iUsCf6bCPexmq1J7uH7bbP5CGE9fbZ+z9WrolO59Xd3/ezqNjSZ6dfFE79F8D4P09vjojI0NoAuxYM7D97GT0m1E2sTMxj3U0SitRP0mcFar0V/2pvl2vVOd3sLMS8fwM/3MsadWwC+oPwsVEYudDbIiIygcDIEFS0psepQz4eET+EVGAuj566OEQKIry3l7VfOE6sodtOv1W8tJdx3tgHsFPzea6kN0REZH5tYIjqY1PB6D7oYd1Yi1gOqcBJnYIds3lFaJwc7iX8b26fcdLab5zlv4TViO09Xkt+AuH+XFrDRUSU1XSAYwfhjcD/t9uUYBsY7EI9FTixP6CjbqI+Kqy7NCBePV4Oi8KTJv8sgJ/9ut6cpHUznfdt4FFa8XCayU9ElPVIYDcbqI8e8/HnwRAbTpmlt40FIRX4VDNPeIq0t7umIIT+Nt4rHT4p9FfFa+xAN3k/ruF6RSvxDId/p3yfiCjntQEf+y4Y5fsnI/LU19hecAJt/1wfxkII8+1u7XdsJj9wQujfIV5i+7o59Q/gTAOSOBGRxShewiQwzp1gpNUnFAVVsZod1gt5SeOuuU063s3ev8Z/TP7BvH8ZD4pd7MSiH7b9vqn62dUkaSIiy9YG2AVgqHOB9yfzdpwk1CSe5ZVdi0cR5nuyA2i+/4S138+werFdRybGk/v3joIjWaYVs8upnZeIyOrpgJ8PBaMdAWnB28k2YiG2ggNYxPUrvo5ZvBXhvp9a+z0D/jxR9GsQm/T+fTXpQN7V/Ox2zeehoR1ERHYh3J6j+tglkBK8mjzJVbGBHxXzeAvCfOtulz45YfHHUXUOj+lThtbpwz30oh9EE8XC5+GduxlN5yUisqUj2M0GayUcpw59jHgCdS0rxXVj4Sm8smtiMIT/ByA9iIoVrBKihlY95PezGYKm9RAROSIaGCT8Hmwj9gncNPQcq4WQP1I5Vq7CzsDoNN4qlrCA6uM41PNn8L3ezj00k5+IyFm1AR+7HIx7nlrEPuhYyA/V3SEdr54gH43NY4fENr2rcDWkDIwkRUTk1Ghgz7Az4KQfo77Kftw0jR9ufEA6qK5j74hido/qp0IfEZHjSfWzgdpWJoXns2ciT/GXxRZ+nVY8nEJ+F9L/B7FFN3ttGQAEAAAAJXRFWHRkYXRlOmNyZWF0ZQAyMDIxLTA1LTI4VDExOjE2OjA3KzAwOjAwy78p+gAAACV0RVh0ZGF0ZTptb2RpZnkAMjAyMS0wNS0yOFQxMToxNjowNyswMDowMLrikUYAAAAASUVORK5CYII=;" parent="JEBXCWIfqeOVVR91bjjy-8" vertex="1">
          <mxGeometry x="10" y="16.170000000000016" width="30" height="27.66" as="geometry" />
        </mxCell>
        <mxCell id="JEBXCWIfqeOVVR91bjjy-7" value="Alma Linux" style="text;html=1;align=center;verticalAlign=middle;whiteSpace=wrap;rounded=0;" parent="JEBXCWIfqeOVVR91bjjy-8" vertex="1">
          <mxGeometry x="50" y="16.170000000000016" width="60" height="30" as="geometry" />
        </mxCell>
        <UserObject label="" link="https://gitlab.com/pl.rachuna-net/infrastructure/packer/alpine" id="JEBXCWIfqeOVVR91bjjy-9">
          <mxCell style="group" parent="1" vertex="1" connectable="0">
            <mxGeometry x="80" y="270" width="120" height="60" as="geometry" />
          </mxCell>
        </UserObject>
        <mxCell id="JEBXCWIfqeOVVR91bjjy-10" value="" style="rounded=1;whiteSpace=wrap;html=1;" parent="JEBXCWIfqeOVVR91bjjy-9" vertex="1">
          <mxGeometry width="120" height="60" as="geometry" />
        </mxCell>
        <mxCell id="JEBXCWIfqeOVVR91bjjy-11" value="" style="shape=image;verticalLabelPosition=bottom;labelBackgroundColor=default;verticalAlign=top;aspect=fixed;imageAspect=0;image=data:image/png,iVBORw0KGgoAAAANSUhEUgAAAQAAAADsCAYAAACbg3grAAAABGdBTUEAALGPC/xhBQAAACBjSFJNAAB6JgAAgIQAAPoAAACA6AAAdTAAAOpgAAA6mAAAF3CculE8AAAAB3RJTUUH5QUcCxAHgIEv1QAAAAZiS0dEAAAAAAAA+UO7fwAALMlJREFUeNrtfQmcVNWx97CIC2pcE40mktDn3HsTYz63xCxGpgdZJIIi7oogiCzzFEEUMCCibEZAQQHZhukePvLi82XxvWdi8mV5Mb6YvMQFJOzMTPdMz75290zPPbfnq7rdkyDM0j19b/ddqn6/clSGmdt1q+pU1al/VV6ezahxxLCBAa88DPj2cq/8LPAz8O+3wtdL8c/yiIhMpnKv8tmgVxqBuldeIK+Er5PhKyf9M9/4BwUK5PzyAuVd4M5PsVf+OfzZt/B7SFJE5hm/zMAB7C7zKtFP66C8P+CVRoVGyKeTlEwiEPBVIOw/AcdPcQAFigB+G76Hk6SITDL+z4OOFQHHutE/dAJ7IRq9kSRlzul/GnjdFSDoSPfC17kRXtIT8L2DSWJERlOZV54COlbdi/6BY5C3Bkewz5C0jPe+Egj4tz2c/l2Mf/YmfO8XSWJERhIaNRj3FtAvrRf9Q/4o4FW+SxIz2gEUKPcCh/oQPnIp8GiIAgaQ1IiMSz+Vb6Nxp6B/EYgU5oLDoIKgccbPzwDBrkxB+DoHCuRFFfn8TJIckUGn/6DyRPgfSU0H5V3l+dLnSHKGOQCJgVB/kaoDAP4P4MtIckSGnP758oXlXmVrGvr3UVmBci1JzrDii4JXf1VpvICGYIH8TUgDSHhEBuifLIMDOJSG/kUhZbgnNEKmK2kDwv8z4fR/po/iX2c3fQELgOkFEGUa/g8IeKWJoFNqevqnbICD61ySYMYOQL4EBPrHtISfyMP+H/AQkiBRhtHnaRDOv56u/sHfCcDXL5MEM3cAN4Ag29N+AXqnlkTXgUSZRQD58vmgTxXpH0BKJ6QBk0iCmTuAVf0RfoKlfyEJEmWkf17l5v7qH0QBPyIJZh6C7ev3C/Aq75AEiTLSvwJlW/8PIKU2NEI+n6TYTwqMlL8KQmzL4AUEywv4VSRJov4QGO+FoEOHMtA/FQ6hCSTJ/joAr7I0CfLp7wsIQwqxiCRJ1M/oE7tPGzLQP2wb3kIw4f4UX0aws8q88m/Tvv47CRsAL/EtiALoOoYo3dN/CIT/u9K+/juV91fkc2pKS/v0z5dvTPb1d2bIfy8vkEaQRInSoXKvwpPQ80z1DxvY7iaJpv0C5KWJED7jF9AIkUQhSZQoLf0rUO4ALjNA/zqANyGcnaSaeviPxZd/zzD8/2ce5pW3EEabKFVCYw0UKKsMCP+7+PcIZyfJphr+e5VbQGiHDRJ+F0b7WyRZohSjTxl05lcG6h/C2O8jiHpqp/9p8AKezvD67xSMNsI5EdZJEibq4/QfAKf/eNCZSgP1rxN+5vqKfH4OSbgv75svXVZeIO8xUvhJcMZWhHWShIl6PYC80tBAgfyc4fpXoPwO+Csk4T6orEC5IVG5N9wBHMLQjiRM1OsBVKB8EfjXJjiA2jKvUkAS7oVCI+TBkKtPTlZOjX4BKsI6aVQTUW/hP0QA30U8vwn6pyVg7TSpqufT36tcABHAbhOE3xUF/AQcDEGEibo//b3yYNCTNabpnw5rly8hSfdAYJxympN/0gQHyQ3BfPkCkjRRD+E/zp780EQH0IbwdpJ0jx5YechE4XdFATeTpIm6dwDSV/ozeyLNQTWrSNI9FwD/02wHgPBOkjRR9w5AXmi6/nmVT0jS3RcALwYBtZgeARQoh+B3URpA1F0N6o9Z0D+IMPj1JO1ThT8tQ+hvyhOD4XfdQxInOin8HwG6UZMF/cPbgBdJ4icQbvQt98pvGtT73/eQhgJlF0QBBM4gOjH8X27S9V93acD7CHcnqScp6JWGg2AOZkP4SX4f4Z4keaKE8XNMP9/J0gGEXBbIl2l/4D9fgF79r82iAwhBFDCZJE+UPP1HGww+63tSlVdeSpJPhP9DkjvXRRZfAP6uVyANoDCMCOtPi7IV/p+wxfrfEfZO3tcrXwPC+HMWhd/F7xA2gCiYzz9Xbmb3ac98OOBVxrr99B8IgngYuC4HL6ASYZ+E0Xb7AaTcZAr4LJWuQK/8NMLf3Vz8w60rm3Ig/K414s8h/JPMwKX6l5g98ajBsyfS4TcC+fIX3Fz8uwr4f3LlAJKwzyvIFNxJAa/8OYgASnKof8fBAd3oZgcwLofeV58UhPBPSgPcWvyTvwoOoCyH+ifAAcyESGSIC42fn1NeIK/NofC7eDXCQMkcXFf8GwQRwPQs3v33xCUIg3ehA5Avgw//Nws4gL2VXprV5sLi3+nA71hA/6rgORQ3OoAC+PAxC7yATkgDvkkm4bL8P59/IUvgs1Qg6g+50QFstITwExjtJWQSbosA5Duton8Ig3dhAcaQtV9GgTP+SCbhMv0rUH5knQNIaUU4vJsKgGMM3LpiBNfAM91EZuEOqsiXcfJvwEL6J+AQmu6m8H+TBaqvJ3IU4aBkGq6JPrH632wh/YtDRPJfuJHY+cWXkfKFFqn+nwzOeAeigIvIPJxNYGQ4+HNPlsFnqfDRcq/yNec7gMTevwqLCb8zAQeVR5OJOL34p3wN3vVfLah/iIeZ5oLwS16ZZehlymkAwkLJRBxf/JuRI/BZKhD1IoTHO1b4wXx+OXzIX1pQ+F3XgT+HNOBLZCaOLf6dB+95h3X1T/kzwuOdHH7dDh+y1MIv4Ag4gZFkKo4t/l0N7/g9C+sfTsWahjB5553+I9jpOAbJKt1/vWC0Z7oao+1QQqMKFCh3WjT8P5E3IUzegcU/+cvw4d6yuPCxLbMEYaJkMk7TP+lcHMdtef1LwOOvcmLxLx+n8NjAAZTBs15JJuOw9LNAwQPoXRs4gLZAgTzJUWlAIJ+fAaH1Aos1//TYE4AwUYSLktk4g6rzPQOCXnlsYimH5fUPeTPYy2ecVHy5uKxA+alNhN+pw0S9yhlkOk4pPsunwXt91Tb6V6DsB3bOqLCAV/k6fKB6G72AZoSLkuk4g0Jefp7eaWcf/Ys56jYKTtM5NhJ+YmCoV55BpuOYAnSB3fQP4fLOSQEKlP+22wso88q/INNxTAHwZfvpn1LqCOFX5Mtfgg/UYT8PrAQr3Dyy2THGz08HY9pnQ/0T8Oz2x6aA8OfZqPr6qTqAqzDajnUA0i02qz+dgFCVN9m7+DJCPgs+yG9sKPwucMYehI+SGdn6AHoJ3mO7HXUQnv1DiAIusXPx73p9+YE9HUCnDht1A0bbueE/Tp7+nU36T7qfGFwg32nn4sts4AYbO4BahI+SKdlV/+TxNj+AYhAFvGJL4Vfne86GD/BvNva+XZOCdlTkO6gryz2n/2AwnpU2LUB/aos1wuhtGP7L34aH/9Dmwkf+CyjS9WRStiv+SRABvOMA/StFGL2thJ9c+43hf5MDXkAr8JTQCJmwAbYq/sk4ebrMAfoXQxg9wultI/yAV7rY4pNX0uW1AS+lAXYhXLYJRvO4xWdPpMNvIZzeTsW/ay06eLG//AeEk5Jp2eUAUi6DsPlNB+lfJUQ0XrsU/wYHCuSpNm3+6Yk1hJMirJTMy/KnP4b/14EDqHWQ/iFEfWEwn59ph+LfBfDAPgcJv4tfhc82hEzM4qd/vjQYjGWe4/TPC1GoV7nUBsUX5YrEcE3HOYCjCCslE7P8AXQmGMq7DtS/1nKv9A07XL9MsNjePyMhwgVkYlaPALgH3lXEifoHzm2uDRyAvNORwk/wK2Rili8Azneq/iGs3uLGr0Mv6xzsAEqr8z3nk5lZk7BXo8wrv+dg/euoyJeHWTn8n+Sw6v/J3ABh2EQyNYveAOQrEryjkIP1T0N4vZULgLts3vvfF7cjvJRMzaL6V6A8nuzc7HQw/wYiHetdB0L4Pwwe7hOHCz+egJfyy8jcLBf+D4V38xOHR6Bd2IDrLegA5AeTu806Hc7HEWZKJme56PM6eDcfuUD/WiHSWWyt3GsEGwQvYEdyio7TX0BHAmZKi0MsdPoPAKPA6n+zC/RPxwZU5MsXWujuVcK719+7RPidCZipJJHpWab4h+Cz3e7RP2UfHEI3WSf898p3w0NVuOgFBOEFjCPTs0zx7zvwTj52kf4hzH6OJfYHQvh/JjiAFU7t/ut5YCiuOudDyfxyHv4PhvfxqL7a3T36h7wTYfe5D/+9+t3rr1wmfEwDfgl8BZlgzqPPC2y298+4gbUFyrW5Pv0HlHnlcTYf/NlfB1ALn/16hJ8S5YYgBMbZE4pLqv+nNAUh7L46f/jgXBb/zg545RdcKPwucNA8hJ+SKeaGKvP5QHgHd7pV/3TYPURAuQy/Li/3Kn9x7QvQMdrymWSKOdK/AuV0zIVd7ADKggVy7m6jAl7pe/AQURe/gEggn1MOkKsCoJdd5PDe/1Si0Mk5jACURW4WfuIFKPPJFHN1AOmLPzpdzm/kRPide4YNCoxW/hq8WelwMwdulv9QdQtWouWLiLPHgZulC4OjlF2kf0qVWD08+6Pq4iVfvjK6kP+p7RF+sG06P+JWjk7j+2vGy2+DUn5InD2uHCP9LvowP+Bm3dN5Lv9f8apnQtYdgPCzpWInrxOLebX4F97pWi7kHc33S0cpFM0uN9wp7VcLeczVuvc0rxfbeFD42K5sh//nCD9/D1gVm+EBngJH4N4XEY88LLVAKBYlw8wet07WDx7hWr2bzxvERjR+sEE//wR4WNYcgObz3Ai/MADcCQ/QIdbxSvEEb3Xry4jN5E1Vt8plZJjZ4cqxchWkns2uNf65PCLWgPEX8zbdBv28FiLyB7N1+g9U/Ww1/NJo8pejE2gTK1mVeBycgQtfCISikYa7pWqHT0OyDNfdIZWpc3iTK43/MYh6nmMhMP76f9ifH/6fj+2Er4OzUfz7PPyid0745V1OoE4shYdyqVcOT5Eag6PlZjJQk69dRyqx5gekVteG/4t5jdjJy0+xPz//M/A15hf/fOxm+EUHunmATlEEacEC5sqiYMcsXlV9q1xLRmouh8bJ1e0zIOV0o/E/AWnP690aP3IN2OZD5ob/RcMGwS+aDxzu4SE6xUZWCg/qxvCsvf5OqbF8pKtg0Vnn2tvlFleG/4/xmFgLh2tPdufnGvCazt3sTDNP/0vhl+zu5SE69cLED3kIHth19YDIFH4sONrxU2lzF/7frEQh/A+CrDXXOYAVDIt+0V5tz89/pfqZbNbpDw6Af6fH8P/TTqBZrNCdgKteFJxMVRCiRshYTav+t8Zm8mMuO/k1sQzCfuy58fN4H7ZXDzY6DqIA47dYa8XDhwg/K+zT+Lt4J68SSyBXe8xdxZq6SVLABaOpczKSvXq8HMFUy0X6pInFrEpsBU7V7vz8Ba2EnW1C+M8vBn4jjQfpFFsgCljAG93kAKIP872Bka6Yjpzt6r9ovl866LJmn1axUe+3UdOwu7+AnV5uQvMP+yr88Oq0HAA++AZWLh53j9eGNKAhOFpuI6M1PP/XOma7KvyPi3X8KNhQJE2bi2ol/HtmFABnpfkgXdwmVrH9bvLctROlv5PRGstVt8ghkK17CsvPsgNwkof7Z3NsnRkpwK/66QCwPyAslrIjbqneQhqwn7oCjeWWydIHbjn51cUsIHakffKf2JRX2rmbGdcVCD/0fIgAwv1+IOSt4AQW8lo9tHF+U5CoGCPXkeEalv+3x2a6pMv0SbCTTaw5ea/fX3uLx0vY9QY6ADY5hSuIvrhDbOTV8AEjLsAGxBCuSsZrDNdMkI+oc1wQ/s/jUbGeh8BW2jO0tTjC9Y3M/9/I8IG6QpOoWMdLxVzHFwW18BSpvnyk0kEGbED4/6BU5vj8/3EeE6vYcVHMWw2xNT9/r3PPsLONCP9l4EMGPRQ2CUXEC/yw01OB9kd5S2icHCQDzrj6H45Ok8IO15e4toQHRBFrMMzO/DyAsH0jwv/Z8MMaDXwwcAKsWVvMy5z8UrFfve4OqZSMOOPw/3jHLIf3ksyHnH+XfsUeN9DOogjbhyhgQCan/1kQ/v8ow4JEt6xuZ4gcdHJhRyBsNUBpQP95pCIa75XqRCFvc3DeHxZbDIywP83vIHw/k9P/BvghH5jycDhJ6BV+HATg2MkuCFtF+CoZc/+4YrTcGJnq4Oo/TvZZy0t1WzDHARwBGx6XSfFvhuHh/8nIwdU8JB53pofHNADhq2TM/ePq8XJdx2xe41h47/OsWhT1ifDLhNvxNgDSgPTHhnfuZmfDD1hvcF7SHWgoIpayZoc2CWmQBlTQwNB+hf8dDXdJmPurDp3s0yJ2sDrT7cvP3tR8ni+m7QBUP/t6cvJvp8kcFztZUDztzKGiCF9FGCsZddrhf0t0Gj/iSONfAGnvVnbMjNpaN4wtxd9BOH86p/9A+IuTgFuz8ICJouA2dlDMA6/owElBNRP0NIBag9Pp/f++3KoWOjD/nwsh/0Z2IFt2lYwCChHOn3ruX8LOTYb/nVnl9ewwCCjsvIGhfB9BhNMK/zUI/0sdmPerYpU+0689q3aFMH4fvzgd4M8V8Bf3Zt0B7ALjX8HKdUE5qRg4mx9HOCsZd+rY/7bpfJ/jHMAyViWKeFPW7crPqzUfuzJ17H8JH6X37mf/QeNiB68RS3mVw15+B8JZybhT4+BoOSIKHRYJLuKVYiuvylLe300UwGalUwDclZOH7HICWzgWBWuc1CmIcFYy7hT3/t0lfeQwhF+9eA0cQK6MP5EG/LqzKIWuwM7d7Cz45pocOoCu8eKVYp5zkIOxmbwOYa1k4H13/7U9wo86aJZ/VLykz/TryLFNxbXi4X1fB8b9nu+ZfzeZEsfEGlYjHnNGFIBwVoS1kpH3Ofk31DHbMTWguFjJsNOvyQL2hLcBM1Jp//2hNR5WD1taxLM6aMgRdYCWBwkc1Bc33u2gtd+LWLnYhYs7rWJP7I2+Fn+eB9/4N8s8MPJ2XgeCdMKVULxtutRSMUppJEPvMfyPRaZKLY6o/cwHw99iYht9//gwwvt7W/s9Dr4hZLGH1sRrkEM9af+mEAhtG2snysfJ2Hto/rlVLsVV6w5o9mkTr/AqiGBVi9lSI8L7ezr9B6t+9qqee1vroRP1gPUgUCyo2Fs5Yk33SU3l1BTULdffKQXVOTbvBsXJPi/yiv5P9DX5ME3A+8/qpvg3fBj8wW8t+NBd9YAmsYoHQMC2Hg2F8FaEuZLBn7r3r+VBqcnWoDBsYFuOk30gWrWqHenwfnZDd8W/O+APyyz84DhevEEs4UE754gIb0WYKxn9SWu/vy9Xtz9q67XfcbEY0udtFir6dc8NCPM/Ofw/AxzAijRXEOWoKMjqxDzWYGNFURHmSgNDT1n7jd1/9kWEzmUR8To7ntNmn5QnBvNtwBedWPzzgAP4L8sbf/IDqJtYGaQCtl06ijBXhLuS4Sdbf0cp4daHJPvOiMQFuOsZYmeETWzob2Dv13Wt/R4A+XWB5cP/T9cDYmKdjhy05SQhhLki3JWMP9n8c4sc7pjFy21q/B1iJT8sii1ZPO+JEeY/CWH/eVqxB8P/BTZ6+K56QKtYri8etWXTSOPd0nG6DUis/Ybwv86mc/81sYTXi+2mjvUyi9cj7B+hv5cAv2XDD6CJbbxOLOYNdqwct8/gBwM3kwMIjFTUyFS+15an/1NwCG3Wx3ppNrSfvQj7x7XfV8N/NNvwA3TqOddmXirm27A/oJC3VYyVG+j6T9HUOTxgyzVeG/X13TGb2k5MK+GjcfZ/oU0/wD+cgLqR7bNjfwDCXl0/+fdWucx2ERze97/ID1qw0y+9MXx+vhGx//9mcweQ4NXwQmw2SajtEY7oQFdPCgpP5R/bLu9fxo8JH4va3WZUH/soD/7xZ0c4gCLWKpaykH4lY5+mIFE5Vq5y7fXfzUq4Y6bN1n4t5jVip47v73QANzrHAWAhZis4gEX2WSSBsFeEv7q4+eegrdZ+P8nrxCYetNF9f1/chCnAmw75MIl1YxtYuZhvm1MljvBXhMG60QG0TpaCtln88QRvEWt5pYlrvHKRAnyMtwArHOMAEk5AiBd5lV2ahBD+ijBY1zX/jJZr2x6xSesvppXPsyZ9lZ2TbAUOf3QA12RzAUiWuFksZ9V2aC2FNCAMaUCl2xaH1E2SynB3oi1APtjs4+N1DrMRiGTYRGwEuhj+40cO+3C4eLRKLOLVdjhhWh+SWoKjFPe0Bo9U1Ob7pWZbdP89xWrEDhu1yafO7wJfjlOAB8G/jEuOC3LWh8Tx4gusXxREGGzo++65DagYI9dFp/FaG+T9TWIjK3Wg8VcDPwg8JLkHgA+FcOAx+B9VjqsHvMwq9Bdp7a7A1tqJctgtDqBmglzfMdviDgDXd7/IypyX9+vp/ktaMbvo5IEgCAqa6zgnUAwfeDULWhw0FG+dLJUhLNYFvf+xxnukekt3/+Eo+uchetzFGywyIt+w2hgc9q9oxZ4LelwSAt8wEb5xvwUWGRi5c7BGLOMVVm4SQjgswmJdEP63tFt58cdjOsKvUuzUw+ROx/TI+PkROOBnguGf0fdykBL2dfgL/5qYIuoQIWzjIbFQDzutejPQgbBYh98GxKvGy81qIW+2rANYADq/iTnJ+KNg+L8A9qa8GzAxJIR9EXLoRcnioDPCoNfAAVi4PwBhsQiPdfLW36b7pMOWDv03sIAtRuOlxiGI6NeIEiZ17hk2MC9dAidwjuZn4+CH/MkhAhHaS+y4ddeHsRonrxHH+QexmeyIZR3AKnYIdMQhRT92DPgesN3z8zIhvCaEH3Kh6mc++MHtDigKhtUV8KIfs2QRKl57h3OxAZXjZOzLENZs9mGH9SlT9jf+GETuv9R8w7+k+j2D84wiXCYAHuVR4L/bvkC4g7eIJTxgxaIgwmOd6gCa7pU+sKTxL+Q1Yqs+2cfOqS6mLUcgYl+s+Tzn5plBnUXDBqk+htuDf5IoLtg3FRCbWZV4Wl83FrfYbUAjwmSd2P3XPsOCk3/m87DYyKtsfqhh2vJL4NsgYj8rz2yClIDBL1ti81uCNrGBl4l51ioKIjwWYbKOW/wxTi633NrvuZDSvsRLLbrGKx3jXwsp+pV4QOdli8DTDBU+9gD88gM27hSMijXsgMXqASrCZB0Y/u8XVlr7je/8BX4Ea0I2Nv5SUeKZA18vyMsFacWeweAE/o/w6wsHIzYtCnaoS9hRK6UCCJNFuKxzqv9yNDJNarOQjOM6yGcXa7Ivko//GiLxb2slw4fk5ZogGrgAHuZpeKhD9iwKslZQiGYLpQFNdZOkUgf1/h/rmGUhPMaTrEHdrt/329H48blXqn7PJXlWI8hDxsDD/cGGjRRCbOIh8aRlVlN3tDwgNQacMSlIa7xHqoHw3xqj25/greIVdsyGk31UfaWXj98Huf6QPKsSpANfB34NHrbeZvWANrGOlekKYo00oLryFrnG9r3/o+XGyFTJGstcH4d3vAoc/S7bNfu0gE2VaD7P9/KsTok2Ys9FkBJgceK4vUBDkAq8wC2BHIQ0oLbmNrne7g6g6lY5FJvJKyyzxmun7ZbgBCCyXqT52RX6Lj+7EDiA07USfdzYb2x0xxoXRSwkFrM6CxSsMHRusHkaEK+7Q4riFiQLrPEKix0saKNmHwGn/t/g60jI98/sEb5rg4gAOwjXwAeptM0OtV38qBXqAQibRfisbef+j1ZaIlP5MQus8WpVX2d2uq6uU32sqHPPsIvynEDCx84EJ3A/8B9ts0vtNXACT+TWCSBsFuGzdoUIh26RIx2zwfHnNu9vF2v1HX52KfTthej5ceCz85xE4M1OEyXsOvhgO+FDhm3QH6CKNaxSLxzlUIGb7pWOBOy4RnykotVNkkI5nfuPq+KeZxUQ0UVs0tH3Uzgk9ZA/z6mk+tnncTIJcKv16wEQATyn1wNyuDeAHbHjGnF4ZjU6Lcdrv3/AK8R2XmP9vJ+FBe7n8PEvQ8o8MM/pBB5uiPB5vgd5zocW7xmIgwJV6vvgclcUFAijtV3+P0pRRSFrymHRr0afCm3tupOAiPiQVsLu1nyeoXluI/jQl4H32wiCqLW0l97MSsUCnrO77JYH+Ad2cwANd0sf5bDoFxUv6zpl3YPFz7EN2Q8H4ZWuOPV7aSM+FwQBKQH/q4WdQEys5+W56g9of5TXlNtsVFjbdH4gZ2O9Vuvbe2MWNv5DcPDhuL1L8oj0q8LTQCDfBYH8zMIvLiJW8NIcrRFXQ+PkgG26/0YpTR2zcnSD8iw4ap8+ztuqp//vIfUd27ln2Jlk+ae2EXuAX7BsG3ERPNcSnv2ZgoW8A+G0ttn7d4e0Xy3Mwdqvp3lAbLfsDj8sem8AvoosveerwgGixHOW6md3gqD2WbCAExdb4HR5ildlfY34NCkauFlus0P3X3iKVJX12X/zwfBf00N/q+mMprfE+/gszec5D1LeAWTpqd0UDINoYHcCCGGxFs0NrBYUriWbNwMIp0VYrQ2afyrbZ/BwlhF+UbFOh/dGLZc2+tlPhY9dTRbdv9rAGZAvLQNBHrTYiw2Ll1i5PlIqe2lAFGG1CK+1sgOov1MKqHOymP8/DqnGCsj7d1ku7y9X/fxFOPGp0JfhVeHpmp9NwAkolioQosItZ6XZHCeGsFqE11q4+aet9UGpMYvhf1ws4RVip6WMXwC/DzwZUlkq9Bl0VTgYnMBXkz0D1kkJdvIWLYv1AEgDQtXjrdsUFBonV0P4H8pe6M8iYhuzUtEvCuG+H/QUUbCnk+UaPWfAz84BAU+Gr1WW6RnYwivFXFDELHUF1t8lhcstig2ovV1uUAuz1DAFkZf6GqRh1tADfIYwhPxPQsp6nm2hu7ZJC3YPv1JNzEG3Ap5AFRsgFchSPQDhtQiztWL433S/VJsthJ/6EjsgfJZICbHw+F68hN1AlpldUBG2Ea8E4Zfl/BTA0dKreWk2Fo8ivBZC7Yjl1n6NlVvaH81CjwR2Yy5nZRZY4xXXZ1z4+CatmMl06ufmqvBccAJ3wYv475w7gR28SSxl1VlYN6YizBbhtla6+6+eIDeJQtOv/zSxmNWKrTrCT8ux8e/VV+X52MVkibmtDQwCL/wVHJqY84aPraxKPMUaze4PQJgtwm0ttPZbbXkgC73/83lEbIZIK/cj5t6GFPS6zt1U5bdOXcDPPgsv5onk3PR4zq6ANrP9+t20qT0BrCk4yjqFwCA4o47ZrNTk0F8V69gnOYSPx5M3UD+E9PMLZHHWjAYGC7/Hm1yUmLspMKioJiMHEW5rmcm/4+WA2ZN91BUsl2O9MOJ4X/Wx8ahjZGkWJ3hZ2Eb8Us5ARbsgEniOV5lZD2ibzg9bxQGEH+Ifm+oAlkBqVcTCOQTx7ISQ/1qyLDtFA3uGnQ0vbRa8vA9yM0mINYtnWL2JtwHRirEWWBwyUonFZvJG04x/ITjx13l1jop+eMO0GFffkUXZ8paAnwZ8E0QDP89B7qiKzTwonjKnMUYt5LH6O6W9Flj8cVSdY9Lgz/ngWDawQA7WeIGusN/A752gFbtwVJfDrgoHaj7PpfAyl+O89SyvG1PFel4qnjDlekyEp0ihXI8Mb75fOiDMwP7jNObVPCCKs47ww0LfDq2EycLHKN931E2BzzMaXi5WktuzqFDtYg0/bsbNAMJuQ2PlytwN/pRbotNNKHbiWK/nGIb9zSK7uP2Dqp/dT5biZCdQgqAi7stqNOCD37WEBU3YH9iC8Nuc9f7fJh/rmG3C2u9FvEbs0if6ZnP55lsQLX6DLMT5V4UDEtOI+Xzgv2etuLQNFPppw5FyAuG32Iefg+KfaLpPqofwv93gvL8+Oc47a7h9CPWXi2LPMGrndddV4VCtxDNS9fN3s9I45ANHs5FX6QpubBpQFcrB3oCKMXJd5GHJ2KUpc3lYrGNVICuRpcaeDzU/mwgHwmfIItx5VTgIHMDngDdl5ZYAq9kvskZD6wGFvLluor4/MKsOoGaCXA3hf5Whwz1WsBodWJWdKv+bYPgenDVBlkA3BUNAIR4EPmD61CEfbxYreK2RTUKQBlQGRymRLPb+dzTeI7UYWPQTYhnHHX41WTD8I8BzIew/izSf6MTawCBQim+Bkvyr6ctLd/KQWMIqjAINxWbx45W3ZG+NeMUYpSU6zbC133GxkNfpQCrzcfu/ECVsNER+Q0jjiXq6KvyS5udLQVkqTFXIrSwgnuR1BqUBYYTjZqsnIDROjqpz9H2JRuT9beJVXmn6EFc/W6362VdIw4n6jgZ2s6EisZvgQ1PD0VfYUQh/DamiIxw3kI31YSMV0XCXVGbU4E/tJXbc5L6MUojspkCaR4U+ojQigeLhg0F5vgaOwJ/c3W5GPSAq1vAjRqQCCMfFjbzZWPvd9gjfZ0Tory5nB0ws+gl4d2+D8d8gioefRhpN1N+bgrMhdJyX3E1g/HVhEW8Wz/HjCHnN1KgQlpuF67+IKGTRjCf7LOEBscOUCc/xJIhnGYF4iAy8KeAjkrsJjI8GtvImsYg1ZBoJICzXbAfQeK/0YcZFv6dYk9ikj/MWxlf5+f/AyX9HZxEV+ogMdwJMAgVbD1xleLi6EQxifmZ99bGZvAFC9LCZDqD9EV6W8Rqvl1mZCY60GQy/CEL+60lTicy6KhygFbMLQcmmg7LtNbiNuF2sZ0cy6Q9Q5/COmgnSQROr/4GO2RkULfGzrWSHTcj7y1Rs7S7xXIoLZklTicy+Kjw9XsKuA6X7D0MHVPrAuJ5nn2SQCqgtD/JSsxxAw93Sx5ms/dYW8yAYf8xYBB/7X4jMbqI1XES5iAhwlfkz+nx4o6KBItasPcODeqGsPxODp/MYwnTNmPwbmar3/vdvF+ICyPt3MiNn+deqPrYd3wFpIlHOCBQR24jvAH7XoPXUmnid14in+jdmC+G5CNM1fPLPODkYe5S39hPh1yI26Wu8hEGFvo80P3sUIrEzSAOJch8J7NGnEV8NKcFmUM4mQ1KBV3i5bjjpdwW2I0zX6P2BDXdJlWp/Fn/gNKS1CLk1pOiHtYMfg/GP6NzNqMpPZLVbAn4JRAKzkilBpuvGcCRWUB+Nle7+wIeluooxcr2Bc//DrZP1td9a2mu8nofPYMgaL0gh/OwHwIjbH0jaRmRRJ+A5XfOx78CJ95eM6wK7IGfGdWNpGh7CdBGua+Dgz1BsZtrDTOJiEasTRSyUYQNVHBzrMa3EM074GA3oJLLNTcGlcFqtzbRAqPrAgJ5KP/dGuC7Cdg1wAFr9JLkZfmYk7bx/BzuUYUdfI/A2cAC0iYfIhrWB3excUOCHE91pGUQDr7OjYFBNaS4OOVoxRmnOfPCnEg4/JAXTRPhFxAZ+JMMBnfvAgc6DiIraeYls7ASKhp2m+tk3QaH39HvYCI7IWssq9JFZqe8NaKr6vhzLeO33LXJrbFYa3X+IaVipT/bJoOKPIB5egLIjDSJyBIFSXwH8HCh4qJ/rxtrEC7w6HdBQw11SIMPbgHjNbTJiFFLv/lvG6sXOfhf9cJXbes1HuH0ip0UCe4YNECXDh0I+exveY/ejMBYHw6oVS1IfKoqw3UzWiGPzT+vkNKC/i8BBbdMHqWj9yPdxVNd0ze85H1Inauclci5BXjsMi1vJIld6p+R2XioWgiNIpV24kEUrxsjRfuf/o5V2dQ4LpVTxX8AbxGYd5JPuqR8Bw38DvsqkGURuqg2cAXnuguScgfTy5VdTXzfWeG//14jX3CYdS/G+v12s48f7UeM4DhHRaoiOziONIHIdaT7PEAh5x4sEqCiShuHExIusXDzWNzAH4bv9dQCRqfyTlBzAChy7ldYaL3R474Lx3wNMHX1ELo4EdjMcPcbAEFYmi2CpFgWbxHPsaApNQe2V4+Rg2vn/KKU5NiuF/oPFYPxFaa1ZawVnsV34PdfgOHbSACIivS7AzgHjuAvy4aoUC4RxsY3XioUs0Ac2AGf470vXAdRNlD7pE/q7gFeJzZD7p17QDGs+VggO4Hxaw0VE1F1aUDz8MtXHfpZcU923UW2C0HuB3iTUU1EwHn2Yh9PsCoyHp+itv6IXkE+beBn781OqX0QgwvltvIRdQ2+YiKjPaIB/Fozm2cTVWJ8Gpop1rA4MMtbLqLCWqlvllGsBFaPlhrZHegEhzYXftUZvcQ6ncL0XTNztezx06hMRpV4bOEtL9Az8rk8ngAW4VbxMPNY9aAhhvA13SRUpr/2eqK/9bu6h008Ty1mp2AXpR9/tvB9CSjMFvp5Pb5SIKF0noK8rw90E+vLS9j6Lgj/gx3saw41w3mAqA0NHKmrz/RIaf7cdhxquON/BqlMI+38Mkcw3aA0XEVGmdQE/u0iUsCf6bCPexmq1J7uH7bbP5CGE9fbZ+z9WrolO59Xd3/ezqNjSZ6dfFE79F8D4P09vjojI0NoAuxYM7D97GT0m1E2sTMxj3U0SitRP0mcFar0V/2pvl2vVOd3sLMS8fwM/3MsadWwC+oPwsVEYudDbIiIygcDIEFS0psepQz4eET+EVGAuj566OEQKIry3l7VfOE6sodtOv1W8tJdx3tgHsFPzea6kN0REZH5tYIjqY1PB6D7oYd1Yi1gOqcBJnYIds3lFaJwc7iX8b26fcdLab5zlv4TViO09Xkt+AuH+XFrDRUSU1XSAYwfhjcD/t9uUYBsY7EI9FTixP6CjbqI+Kqy7NCBePV4Oi8KTJv8sgJ/9ut6cpHUznfdt4FFa8XCayU9ElPVIYDcbqI8e8/HnwRAbTpmlt40FIRX4VDNPeIq0t7umIIT+Nt4rHT4p9FfFa+xAN3k/ruF6RSvxDId/p3yfiCjntQEf+y4Y5fsnI/LU19hecAJt/1wfxkII8+1u7XdsJj9wQujfIV5i+7o59Q/gTAOSOBGRxShewiQwzp1gpNUnFAVVsZod1gt5SeOuuU063s3ev8Z/TP7BvH8ZD4pd7MSiH7b9vqn62dUkaSIiy9YG2AVgqHOB9yfzdpwk1CSe5ZVdi0cR5nuyA2i+/4S138+werFdRybGk/v3joIjWaYVs8upnZeIyOrpgJ8PBaMdAWnB28k2YiG2ggNYxPUrvo5ZvBXhvp9a+z0D/jxR9GsQm/T+fTXpQN7V/Ox2zeehoR1ERHYh3J6j+tglkBK8mjzJVbGBHxXzeAvCfOtulz45YfHHUXUOj+lThtbpwz30oh9EE8XC5+GduxlN5yUisqUj2M0GayUcpw59jHgCdS0rxXVj4Sm8smtiMIT/ByA9iIoVrBKihlY95PezGYKm9RAROSIaGCT8Hmwj9gncNPQcq4WQP1I5Vq7CzsDoNN4qlrCA6uM41PNn8L3ezj00k5+IyFm1AR+7HIx7nlrEPuhYyA/V3SEdr54gH43NY4fENr2rcDWkDIwkRUTk1Ghgz7Az4KQfo77Kftw0jR9ufEA6qK5j74hido/qp0IfEZHjSfWzgdpWJoXns2ciT/GXxRZ+nVY8nEJ+F9L/B7FFN3ttGQAEAAAAJXRFWHRkYXRlOmNyZWF0ZQAyMDIxLTA1LTI4VDExOjE2OjA3KzAwOjAwy78p+gAAACV0RVh0ZGF0ZTptb2RpZnkAMjAyMS0wNS0yOFQxMToxNjowNyswMDowMLrikUYAAAAASUVORK5CYII=;" parent="JEBXCWIfqeOVVR91bjjy-9" vertex="1">
          <mxGeometry x="10" y="16.170000000000016" width="30" height="27.66" as="geometry" />
        </mxCell>
        <mxCell id="JEBXCWIfqeOVVR91bjjy-12" value="Alpine" style="text;html=1;align=center;verticalAlign=middle;whiteSpace=wrap;rounded=0;" parent="JEBXCWIfqeOVVR91bjjy-9" vertex="1">
          <mxGeometry x="50" y="16.170000000000016" width="60" height="30" as="geometry" />
        </mxCell>
        <UserObject label="" link="https://gitlab.com/pl.rachuna-net/infrastructure/packer/ubuntu" id="JEBXCWIfqeOVVR91bjjy-15">
          <mxCell style="group" parent="1" vertex="1" connectable="0">
            <mxGeometry x="80" y="340" width="120" height="60" as="geometry" />
          </mxCell>
        </UserObject>
        <mxCell id="JEBXCWIfqeOVVR91bjjy-16" value="" style="rounded=1;whiteSpace=wrap;html=1;" parent="JEBXCWIfqeOVVR91bjjy-15" vertex="1">
          <mxGeometry width="120" height="60" as="geometry" />
        </mxCell>
        <mxCell id="JEBXCWIfqeOVVR91bjjy-17" value="" style="shape=image;verticalLabelPosition=bottom;labelBackgroundColor=default;verticalAlign=top;aspect=fixed;imageAspect=0;image=data:image/png,iVBORw0KGgoAAAANSUhEUgAAAQAAAADsCAYAAACbg3grAAAABGdBTUEAALGPC/xhBQAAACBjSFJNAAB6JgAAgIQAAPoAAACA6AAAdTAAAOpgAAA6mAAAF3CculE8AAAAB3RJTUUH5QUcCxAHgIEv1QAAAAZiS0dEAAAAAAAA+UO7fwAALMlJREFUeNrtfQmcVNWx97CIC2pcE40mktDn3HsTYz63xCxGpgdZJIIi7oogiCzzFEEUMCCibEZAQQHZhukePvLi82XxvWdi8mV5Mb6YvMQFJOzMTPdMz75290zPPbfnq7rdkyDM0j19b/ddqn6/clSGmdt1q+pU1al/VV6ezahxxLCBAa88DPj2cq/8LPAz8O+3wtdL8c/yiIhMpnKv8tmgVxqBuldeIK+Er5PhKyf9M9/4BwUK5PzyAuVd4M5PsVf+OfzZt/B7SFJE5hm/zMAB7C7zKtFP66C8P+CVRoVGyKeTlEwiEPBVIOw/AcdPcQAFigB+G76Hk6SITDL+z4OOFQHHutE/dAJ7IRq9kSRlzul/GnjdFSDoSPfC17kRXtIT8L2DSWJERlOZV54COlbdi/6BY5C3Bkewz5C0jPe+Egj4tz2c/l2Mf/YmfO8XSWJERhIaNRj3FtAvrRf9Q/4o4FW+SxIz2gEUKPcCh/oQPnIp8GiIAgaQ1IiMSz+Vb6Nxp6B/EYgU5oLDoIKgccbPzwDBrkxB+DoHCuRFFfn8TJIckUGn/6DyRPgfSU0H5V3l+dLnSHKGOQCJgVB/kaoDAP4P4MtIckSGnP758oXlXmVrGvr3UVmBci1JzrDii4JXf1VpvICGYIH8TUgDSHhEBuifLIMDOJSG/kUhZbgnNEKmK2kDwv8z4fR/po/iX2c3fQELgOkFEGUa/g8IeKWJoFNqevqnbICD61ySYMYOQL4EBPrHtISfyMP+H/AQkiBRhtHnaRDOv56u/sHfCcDXL5MEM3cAN4Ag29N+AXqnlkTXgUSZRQD58vmgTxXpH0BKJ6QBk0iCmTuAVf0RfoKlfyEJEmWkf17l5v7qH0QBPyIJZh6C7ev3C/Aq75AEiTLSvwJlW/8PIKU2NEI+n6TYTwqMlL8KQmzL4AUEywv4VSRJov4QGO+FoEOHMtA/FQ6hCSTJ/joAr7I0CfLp7wsIQwqxiCRJ1M/oE7tPGzLQP2wb3kIw4f4UX0aws8q88m/Tvv47CRsAL/EtiALoOoYo3dN/CIT/u9K+/juV91fkc2pKS/v0z5dvTPb1d2bIfy8vkEaQRInSoXKvwpPQ80z1DxvY7iaJpv0C5KWJED7jF9AIkUQhSZQoLf0rUO4ALjNA/zqANyGcnaSaeviPxZd/zzD8/2ce5pW3EEabKFVCYw0UKKsMCP+7+PcIZyfJphr+e5VbQGiHDRJ+F0b7WyRZohSjTxl05lcG6h/C2O8jiHpqp/9p8AKezvD67xSMNsI5EdZJEibq4/QfAKf/eNCZSgP1rxN+5vqKfH4OSbgv75svXVZeIO8xUvhJcMZWhHWShIl6PYC80tBAgfyc4fpXoPwO+Csk4T6orEC5IVG5N9wBHMLQjiRM1OsBVKB8EfjXJjiA2jKvUkAS7oVCI+TBkKtPTlZOjX4BKsI6aVQTUW/hP0QA30U8vwn6pyVg7TSpqufT36tcABHAbhOE3xUF/AQcDEGEibo//b3yYNCTNabpnw5rly8hSfdAYJxympN/0gQHyQ3BfPkCkjRRD+E/zp780EQH0IbwdpJ0jx5YechE4XdFATeTpIm6dwDSV/ozeyLNQTWrSNI9FwD/02wHgPBOkjRR9w5AXmi6/nmVT0jS3RcALwYBtZgeARQoh+B3URpA1F0N6o9Z0D+IMPj1JO1ThT8tQ+hvyhOD4XfdQxInOin8HwG6UZMF/cPbgBdJ4icQbvQt98pvGtT73/eQhgJlF0QBBM4gOjH8X27S9V93acD7CHcnqScp6JWGg2AOZkP4SX4f4Z4keaKE8XNMP9/J0gGEXBbIl2l/4D9fgF79r82iAwhBFDCZJE+UPP1HGww+63tSlVdeSpJPhP9DkjvXRRZfAP6uVyANoDCMCOtPi7IV/p+wxfrfEfZO3tcrXwPC+HMWhd/F7xA2gCiYzz9Xbmb3ac98OOBVxrr99B8IgngYuC4HL6ASYZ+E0Xb7AaTcZAr4LJWuQK/8NMLf3Vz8w60rm3Ig/K414s8h/JPMwKX6l5g98ajBsyfS4TcC+fIX3Fz8uwr4f3LlAJKwzyvIFNxJAa/8OYgASnKof8fBAd3oZgcwLofeV58UhPBPSgPcWvyTvwoOoCyH+ifAAcyESGSIC42fn1NeIK/NofC7eDXCQMkcXFf8GwQRwPQs3v33xCUIg3ehA5Avgw//Nws4gL2VXprV5sLi3+nA71hA/6rgORQ3OoAC+PAxC7yATkgDvkkm4bL8P59/IUvgs1Qg6g+50QFstITwExjtJWQSbosA5Duton8Ig3dhAcaQtV9GgTP+SCbhMv0rUH5knQNIaUU4vJsKgGMM3LpiBNfAM91EZuEOqsiXcfJvwEL6J+AQmu6m8H+TBaqvJ3IU4aBkGq6JPrH632wh/YtDRPJfuJHY+cWXkfKFFqn+nwzOeAeigIvIPJxNYGQ4+HNPlsFnqfDRcq/yNec7gMTevwqLCb8zAQeVR5OJOL34p3wN3vVfLah/iIeZ5oLwS16ZZehlymkAwkLJRBxf/JuRI/BZKhD1IoTHO1b4wXx+OXzIX1pQ+F3XgT+HNOBLZCaOLf6dB+95h3X1T/kzwuOdHH7dDh+y1MIv4Ag4gZFkKo4t/l0N7/g9C+sfTsWahjB5553+I9jpOAbJKt1/vWC0Z7oao+1QQqMKFCh3WjT8P5E3IUzegcU/+cvw4d6yuPCxLbMEYaJkMk7TP+lcHMdtef1LwOOvcmLxLx+n8NjAAZTBs15JJuOw9LNAwQPoXRs4gLZAgTzJUWlAIJ+fAaH1Aos1//TYE4AwUYSLktk4g6rzPQOCXnlsYimH5fUPeTPYy2ecVHy5uKxA+alNhN+pw0S9yhlkOk4pPsunwXt91Tb6V6DsB3bOqLCAV/k6fKB6G72AZoSLkuk4g0Jefp7eaWcf/Ys56jYKTtM5NhJ+YmCoV55BpuOYAnSB3fQP4fLOSQEKlP+22wso88q/INNxTAHwZfvpn1LqCOFX5Mtfgg/UYT8PrAQr3Dyy2THGz08HY9pnQ/0T8Oz2x6aA8OfZqPr6qTqAqzDajnUA0i02qz+dgFCVN9m7+DJCPgs+yG9sKPwucMYehI+SGdn6AHoJ3mO7HXUQnv1DiAIusXPx73p9+YE9HUCnDht1A0bbueE/Tp7+nU36T7qfGFwg32nn4sts4AYbO4BahI+SKdlV/+TxNj+AYhAFvGJL4Vfne86GD/BvNva+XZOCdlTkO6gryz2n/2AwnpU2LUB/aos1wuhtGP7L34aH/9Dmwkf+CyjS9WRStiv+SRABvOMA/StFGL2thJ9c+43hf5MDXkAr8JTQCJmwAbYq/sk4ebrMAfoXQxg9wultI/yAV7rY4pNX0uW1AS+lAXYhXLYJRvO4xWdPpMNvIZzeTsW/ay06eLG//AeEk5Jp2eUAUi6DsPlNB+lfJUQ0XrsU/wYHCuSpNm3+6Yk1hJMirJTMy/KnP4b/14EDqHWQ/iFEfWEwn59ph+LfBfDAPgcJv4tfhc82hEzM4qd/vjQYjGWe4/TPC1GoV7nUBsUX5YrEcE3HOYCjCCslE7P8AXQmGMq7DtS/1nKv9A07XL9MsNjePyMhwgVkYlaPALgH3lXEifoHzm2uDRyAvNORwk/wK2Rili8Azneq/iGs3uLGr0Mv6xzsAEqr8z3nk5lZk7BXo8wrv+dg/euoyJeHWTn8n+Sw6v/J3ABh2EQyNYveAOQrEryjkIP1T0N4vZULgLts3vvfF7cjvJRMzaL6V6A8nuzc7HQw/wYiHetdB0L4Pwwe7hOHCz+egJfyy8jcLBf+D4V38xOHR6Bd2IDrLegA5AeTu806Hc7HEWZKJme56PM6eDcfuUD/WiHSWWyt3GsEGwQvYEdyio7TX0BHAmZKi0MsdPoPAKPA6n+zC/RPxwZU5MsXWujuVcK719+7RPidCZipJJHpWab4h+Cz3e7RP2UfHEI3WSf898p3w0NVuOgFBOEFjCPTs0zx7zvwTj52kf4hzH6OJfYHQvh/JjiAFU7t/ut5YCiuOudDyfxyHv4PhvfxqL7a3T36h7wTYfe5D/+9+t3rr1wmfEwDfgl8BZlgzqPPC2y298+4gbUFyrW5Pv0HlHnlcTYf/NlfB1ALn/16hJ8S5YYgBMbZE4pLqv+nNAUh7L46f/jgXBb/zg545RdcKPwucNA8hJ+SKeaGKvP5QHgHd7pV/3TYPURAuQy/Li/3Kn9x7QvQMdrymWSKOdK/AuV0zIVd7ADKggVy7m6jAl7pe/AQURe/gEggn1MOkKsCoJdd5PDe/1Si0Mk5jACURW4WfuIFKPPJFHN1AOmLPzpdzm/kRPide4YNCoxW/hq8WelwMwdulv9QdQtWouWLiLPHgZulC4OjlF2kf0qVWD08+6Pq4iVfvjK6kP+p7RF+sG06P+JWjk7j+2vGy2+DUn5InD2uHCP9LvowP+Bm3dN5Lv9f8apnQtYdgPCzpWInrxOLebX4F97pWi7kHc33S0cpFM0uN9wp7VcLeczVuvc0rxfbeFD42K5sh//nCD9/D1gVm+EBngJH4N4XEY88LLVAKBYlw8wet07WDx7hWr2bzxvERjR+sEE//wR4WNYcgObz3Ai/MADcCQ/QIdbxSvEEb3Xry4jN5E1Vt8plZJjZ4cqxchWkns2uNf65PCLWgPEX8zbdBv28FiLyB7N1+g9U/Ww1/NJo8pejE2gTK1mVeBycgQtfCISikYa7pWqHT0OyDNfdIZWpc3iTK43/MYh6nmMhMP76f9ifH/6fj+2Er4OzUfz7PPyid0745V1OoE4shYdyqVcOT5Eag6PlZjJQk69dRyqx5gekVteG/4t5jdjJy0+xPz//M/A15hf/fOxm+EUHunmATlEEacEC5sqiYMcsXlV9q1xLRmouh8bJ1e0zIOV0o/E/AWnP690aP3IN2OZD5ob/RcMGwS+aDxzu4SE6xUZWCg/qxvCsvf5OqbF8pKtg0Vnn2tvlFleG/4/xmFgLh2tPdufnGvCazt3sTDNP/0vhl+zu5SE69cLED3kIHth19YDIFH4sONrxU2lzF/7frEQh/A+CrDXXOYAVDIt+0V5tz89/pfqZbNbpDw6Af6fH8P/TTqBZrNCdgKteFJxMVRCiRshYTav+t8Zm8mMuO/k1sQzCfuy58fN4H7ZXDzY6DqIA47dYa8XDhwg/K+zT+Lt4J68SSyBXe8xdxZq6SVLABaOpczKSvXq8HMFUy0X6pInFrEpsBU7V7vz8Ba2EnW1C+M8vBn4jjQfpFFsgCljAG93kAKIP872Bka6Yjpzt6r9ovl866LJmn1axUe+3UdOwu7+AnV5uQvMP+yr88Oq0HAA++AZWLh53j9eGNKAhOFpuI6M1PP/XOma7KvyPi3X8KNhQJE2bi2ol/HtmFABnpfkgXdwmVrH9bvLctROlv5PRGstVt8ghkK17CsvPsgNwkof7Z3NsnRkpwK/66QCwPyAslrIjbqneQhqwn7oCjeWWydIHbjn51cUsIHakffKf2JRX2rmbGdcVCD/0fIgAwv1+IOSt4AQW8lo9tHF+U5CoGCPXkeEalv+3x2a6pMv0SbCTTaw5ea/fX3uLx0vY9QY6ADY5hSuIvrhDbOTV8AEjLsAGxBCuSsZrDNdMkI+oc1wQ/s/jUbGeh8BW2jO0tTjC9Y3M/9/I8IG6QpOoWMdLxVzHFwW18BSpvnyk0kEGbED4/6BU5vj8/3EeE6vYcVHMWw2xNT9/r3PPsLONCP9l4EMGPRQ2CUXEC/yw01OB9kd5S2icHCQDzrj6H45Ok8IO15e4toQHRBFrMMzO/DyAsH0jwv/Z8MMaDXwwcAKsWVvMy5z8UrFfve4OqZSMOOPw/3jHLIf3ksyHnH+XfsUeN9DOogjbhyhgQCan/1kQ/v8ow4JEt6xuZ4gcdHJhRyBsNUBpQP95pCIa75XqRCFvc3DeHxZbDIywP83vIHw/k9P/BvghH5jycDhJ6BV+HATg2MkuCFtF+CoZc/+4YrTcGJnq4Oo/TvZZy0t1WzDHARwBGx6XSfFvhuHh/8nIwdU8JB53pofHNADhq2TM/ePq8XJdx2xe41h47/OsWhT1ifDLhNvxNgDSgPTHhnfuZmfDD1hvcF7SHWgoIpayZoc2CWmQBlTQwNB+hf8dDXdJmPurDp3s0yJ2sDrT7cvP3tR8ni+m7QBUP/t6cvJvp8kcFztZUDztzKGiCF9FGCsZddrhf0t0Gj/iSONfAGnvVnbMjNpaN4wtxd9BOH86p/9A+IuTgFuz8ICJouA2dlDMA6/owElBNRP0NIBag9Pp/f++3KoWOjD/nwsh/0Z2IFt2lYwCChHOn3ruX8LOTYb/nVnl9ewwCCjsvIGhfB9BhNMK/zUI/0sdmPerYpU+0689q3aFMH4fvzgd4M8V8Bf3Zt0B7ALjX8HKdUE5qRg4mx9HOCsZd+rY/7bpfJ/jHMAyViWKeFPW7crPqzUfuzJ17H8JH6X37mf/QeNiB68RS3mVw15+B8JZybhT4+BoOSIKHRYJLuKVYiuvylLe300UwGalUwDclZOH7HICWzgWBWuc1CmIcFYy7hT3/t0lfeQwhF+9eA0cQK6MP5EG/LqzKIWuwM7d7Cz45pocOoCu8eKVYp5zkIOxmbwOYa1k4H13/7U9wo86aJZ/VLykz/TryLFNxbXi4X1fB8b9nu+ZfzeZEsfEGlYjHnNGFIBwVoS1kpH3Ofk31DHbMTWguFjJsNOvyQL2hLcBM1Jp//2hNR5WD1taxLM6aMgRdYCWBwkc1Bc33u2gtd+LWLnYhYs7rWJP7I2+Fn+eB9/4N8s8MPJ2XgeCdMKVULxtutRSMUppJEPvMfyPRaZKLY6o/cwHw99iYht9//gwwvt7W/s9Dr4hZLGH1sRrkEM9af+mEAhtG2snysfJ2Hto/rlVLsVV6w5o9mkTr/AqiGBVi9lSI8L7ezr9B6t+9qqee1vroRP1gPUgUCyo2Fs5Yk33SU3l1BTULdffKQXVOTbvBsXJPi/yiv5P9DX5ME3A+8/qpvg3fBj8wW8t+NBd9YAmsYoHQMC2Hg2F8FaEuZLBn7r3r+VBqcnWoDBsYFuOk30gWrWqHenwfnZDd8W/O+APyyz84DhevEEs4UE754gIb0WYKxn9SWu/vy9Xtz9q67XfcbEY0udtFir6dc8NCPM/Ofw/AxzAijRXEOWoKMjqxDzWYGNFURHmSgNDT1n7jd1/9kWEzmUR8To7ntNmn5QnBvNtwBedWPzzgAP4L8sbf/IDqJtYGaQCtl06ijBXhLuS4Sdbf0cp4daHJPvOiMQFuOsZYmeETWzob2Dv13Wt/R4A+XWB5cP/T9cDYmKdjhy05SQhhLki3JWMP9n8c4sc7pjFy21q/B1iJT8sii1ZPO+JEeY/CWH/eVqxB8P/BTZ6+K56QKtYri8etWXTSOPd0nG6DUis/Ybwv86mc/81sYTXi+2mjvUyi9cj7B+hv5cAv2XDD6CJbbxOLOYNdqwct8/gBwM3kwMIjFTUyFS+15an/1NwCG3Wx3ppNrSfvQj7x7XfV8N/NNvwA3TqOddmXirm27A/oJC3VYyVG+j6T9HUOTxgyzVeG/X13TGb2k5MK+GjcfZ/oU0/wD+cgLqR7bNjfwDCXl0/+fdWucx2ERze97/ID1qw0y+9MXx+vhGx//9mcweQ4NXwQmw2SajtEY7oQFdPCgpP5R/bLu9fxo8JH4va3WZUH/soD/7xZ0c4gCLWKpaykH4lY5+mIFE5Vq5y7fXfzUq4Y6bN1n4t5jVip47v73QANzrHAWAhZis4gEX2WSSBsFeEv7q4+eegrdZ+P8nrxCYetNF9f1/chCnAmw75MIl1YxtYuZhvm1MljvBXhMG60QG0TpaCtln88QRvEWt5pYlrvHKRAnyMtwArHOMAEk5AiBd5lV2ahBD+ijBY1zX/jJZr2x6xSesvppXPsyZ9lZ2TbAUOf3QA12RzAUiWuFksZ9V2aC2FNCAMaUCl2xaH1E2SynB3oi1APtjs4+N1DrMRiGTYRGwEuhj+40cO+3C4eLRKLOLVdjhhWh+SWoKjFPe0Bo9U1Ob7pWZbdP89xWrEDhu1yafO7wJfjlOAB8G/jEuOC3LWh8Tx4gusXxREGGzo++65DagYI9dFp/FaG+T9TWIjK3Wg8VcDPwg8JLkHgA+FcOAx+B9VjqsHvMwq9Bdp7a7A1tqJctgtDqBmglzfMdviDgDXd7/IypyX9+vp/ktaMbvo5IEgCAqa6zgnUAwfeDULWhw0FG+dLJUhLNYFvf+xxnukekt3/+Eo+uchetzFGywyIt+w2hgc9q9oxZ4LelwSAt8wEb5xvwUWGRi5c7BGLOMVVm4SQjgswmJdEP63tFt58cdjOsKvUuzUw+ROx/TI+PkROOBnguGf0fdykBL2dfgL/5qYIuoQIWzjIbFQDzutejPQgbBYh98GxKvGy81qIW+2rANYADq/iTnJ+KNg+L8A9qa8GzAxJIR9EXLoRcnioDPCoNfAAVi4PwBhsQiPdfLW36b7pMOWDv03sIAtRuOlxiGI6NeIEiZ17hk2MC9dAidwjuZn4+CH/MkhAhHaS+y4ddeHsRonrxHH+QexmeyIZR3AKnYIdMQhRT92DPgesN3z8zIhvCaEH3Kh6mc++MHtDigKhtUV8KIfs2QRKl57h3OxAZXjZOzLENZs9mGH9SlT9jf+GETuv9R8w7+k+j2D84wiXCYAHuVR4L/bvkC4g7eIJTxgxaIgwmOd6gCa7pU+sKTxL+Q1Yqs+2cfOqS6mLUcgYl+s+Tzn5plBnUXDBqk+htuDf5IoLtg3FRCbWZV4Wl83FrfYbUAjwmSd2P3XPsOCk3/m87DYyKtsfqhh2vJL4NsgYj8rz2yClIDBL1ti81uCNrGBl4l51ioKIjwWYbKOW/wxTi633NrvuZDSvsRLLbrGKx3jXwsp+pV4QOdli8DTDBU+9gD88gM27hSMijXsgMXqASrCZB0Y/u8XVlr7je/8BX4Ea0I2Nv5SUeKZA18vyMsFacWeweAE/o/w6wsHIzYtCnaoS9hRK6UCCJNFuKxzqv9yNDJNarOQjOM6yGcXa7Ivko//GiLxb2slw4fk5ZogGrgAHuZpeKhD9iwKslZQiGYLpQFNdZOkUgf1/h/rmGUhPMaTrEHdrt/329H48blXqn7PJXlWI8hDxsDD/cGGjRRCbOIh8aRlVlN3tDwgNQacMSlIa7xHqoHw3xqj25/greIVdsyGk31UfaWXj98Huf6QPKsSpANfB34NHrbeZvWANrGOlekKYo00oLryFrnG9r3/o+XGyFTJGstcH4d3vAoc/S7bNfu0gE2VaD7P9/KsTok2Ys9FkBJgceK4vUBDkAq8wC2BHIQ0oLbmNrne7g6g6lY5FJvJKyyzxmun7ZbgBCCyXqT52RX6Lj+7EDiA07USfdzYb2x0xxoXRSwkFrM6CxSsMHRusHkaEK+7Q4riFiQLrPEKix0saKNmHwGn/t/g60jI98/sEb5rg4gAOwjXwAeptM0OtV38qBXqAQibRfisbef+j1ZaIlP5MQus8WpVX2d2uq6uU32sqHPPsIvynEDCx84EJ3A/8B9ts0vtNXACT+TWCSBsFuGzdoUIh26RIx2zwfHnNu9vF2v1HX52KfTthej5ceCz85xE4M1OEyXsOvhgO+FDhm3QH6CKNaxSLxzlUIGb7pWOBOy4RnykotVNkkI5nfuPq+KeZxUQ0UVs0tH3Uzgk9ZA/z6mk+tnncTIJcKv16wEQATyn1wNyuDeAHbHjGnF4ZjU6Lcdrv3/AK8R2XmP9vJ+FBe7n8PEvQ8o8MM/pBB5uiPB5vgd5zocW7xmIgwJV6vvgclcUFAijtV3+P0pRRSFrymHRr0afCm3tupOAiPiQVsLu1nyeoXluI/jQl4H32wiCqLW0l97MSsUCnrO77JYH+Ad2cwANd0sf5bDoFxUv6zpl3YPFz7EN2Q8H4ZWuOPV7aSM+FwQBKQH/q4WdQEys5+W56g9of5TXlNtsVFjbdH4gZ2O9Vuvbe2MWNv5DcPDhuL1L8oj0q8LTQCDfBYH8zMIvLiJW8NIcrRFXQ+PkgG26/0YpTR2zcnSD8iw4ap8+ztuqp//vIfUd27ln2Jlk+ae2EXuAX7BsG3ERPNcSnv2ZgoW8A+G0ttn7d4e0Xy3Mwdqvp3lAbLfsDj8sem8AvoosveerwgGixHOW6md3gqD2WbCAExdb4HR5ildlfY34NCkauFlus0P3X3iKVJX12X/zwfBf00N/q+mMprfE+/gszec5D1LeAWTpqd0UDINoYHcCCGGxFs0NrBYUriWbNwMIp0VYrQ2afyrbZ/BwlhF+UbFOh/dGLZc2+tlPhY9dTRbdv9rAGZAvLQNBHrTYiw2Ll1i5PlIqe2lAFGG1CK+1sgOov1MKqHOymP8/DqnGCsj7d1ku7y9X/fxFOPGp0JfhVeHpmp9NwAkolioQosItZ6XZHCeGsFqE11q4+aet9UGpMYvhf1ws4RVip6WMXwC/DzwZUlkq9Bl0VTgYnMBXkz0D1kkJdvIWLYv1AEgDQtXjrdsUFBonV0P4H8pe6M8iYhuzUtEvCuG+H/QUUbCnk+UaPWfAz84BAU+Gr1WW6RnYwivFXFDELHUF1t8lhcstig2ovV1uUAuz1DAFkZf6GqRh1tADfIYwhPxPQsp6nm2hu7ZJC3YPv1JNzEG3Ap5AFRsgFchSPQDhtQiztWL433S/VJsthJ/6EjsgfJZICbHw+F68hN1AlpldUBG2Ea8E4Zfl/BTA0dKreWk2Fo8ivBZC7Yjl1n6NlVvaH81CjwR2Yy5nZRZY4xXXZ1z4+CatmMl06ufmqvBccAJ3wYv475w7gR28SSxl1VlYN6YizBbhtla6+6+eIDeJQtOv/zSxmNWKrTrCT8ux8e/VV+X52MVkibmtDQwCL/wVHJqY84aPraxKPMUaze4PQJgtwm0ttPZbbXkgC73/83lEbIZIK/cj5t6GFPS6zt1U5bdOXcDPPgsv5onk3PR4zq6ANrP9+t20qT0BrCk4yjqFwCA4o47ZrNTk0F8V69gnOYSPx5M3UD+E9PMLZHHWjAYGC7/Hm1yUmLspMKioJiMHEW5rmcm/4+WA2ZN91BUsl2O9MOJ4X/Wx8ahjZGkWJ3hZ2Eb8Us5ARbsgEniOV5lZD2ibzg9bxQGEH+Ifm+oAlkBqVcTCOQTx7ISQ/1qyLDtFA3uGnQ0vbRa8vA9yM0mINYtnWL2JtwHRirEWWBwyUonFZvJG04x/ITjx13l1jop+eMO0GFffkUXZ8paAnwZ8E0QDP89B7qiKzTwonjKnMUYt5LH6O6W9Flj8cVSdY9Lgz/ngWDawQA7WeIGusN/A752gFbtwVJfDrgoHaj7PpfAyl+O89SyvG1PFel4qnjDlekyEp0ihXI8Mb75fOiDMwP7jNObVPCCKs47ww0LfDq2EycLHKN931E2BzzMaXi5WktuzqFDtYg0/bsbNAMJuQ2PlytwN/pRbotNNKHbiWK/nGIb9zSK7uP2Dqp/dT5biZCdQgqAi7stqNOCD37WEBU3YH9iC8Nuc9f7fJh/rmG3C2u9FvEbs0if6ZnP55lsQLX6DLMT5V4UDEtOI+Xzgv2etuLQNFPppw5FyAuG32Iefg+KfaLpPqofwv93gvL8+Oc47a7h9CPWXi2LPMGrndddV4VCtxDNS9fN3s9I45ANHs5FX6QpubBpQFcrB3oCKMXJd5GHJ2KUpc3lYrGNVICuRpcaeDzU/mwgHwmfIItx5VTgIHMDngDdl5ZYAq9kvskZD6wGFvLluor4/MKsOoGaCXA3hf5Whwz1WsBodWJWdKv+bYPgenDVBlkA3BUNAIR4EPmD61CEfbxYreK2RTUKQBlQGRymRLPb+dzTeI7UYWPQTYhnHHX41WTD8I8BzIew/izSf6MTawCBQim+Bkvyr6ctLd/KQWMIqjAINxWbx45W3ZG+NeMUYpSU6zbC133GxkNfpQCrzcfu/ECVsNER+Q0jjiXq6KvyS5udLQVkqTFXIrSwgnuR1BqUBYYTjZqsnIDROjqpz9H2JRuT9beJVXmn6EFc/W6362VdIw4n6jgZ2s6EisZvgQ1PD0VfYUQh/DamiIxw3kI31YSMV0XCXVGbU4E/tJXbc5L6MUojspkCaR4U+ojQigeLhg0F5vgaOwJ/c3W5GPSAq1vAjRqQCCMfFjbzZWPvd9gjfZ0Tory5nB0ws+gl4d2+D8d8gioefRhpN1N+bgrMhdJyX3E1g/HVhEW8Wz/HjCHnN1KgQlpuF67+IKGTRjCf7LOEBscOUCc/xJIhnGYF4iAy8KeAjkrsJjI8GtvImsYg1ZBoJICzXbAfQeK/0YcZFv6dYk9ikj/MWxlf5+f/AyX9HZxEV+ogMdwJMAgVbD1xleLi6EQxifmZ99bGZvAFC9LCZDqD9EV6W8Rqvl1mZCY60GQy/CEL+60lTicy6KhygFbMLQcmmg7LtNbiNuF2sZ0cy6Q9Q5/COmgnSQROr/4GO2RkULfGzrWSHTcj7y1Rs7S7xXIoLZklTicy+Kjw9XsKuA6X7D0MHVPrAuJ5nn2SQCqgtD/JSsxxAw93Sx5ms/dYW8yAYf8xYBB/7X4jMbqI1XES5iAhwlfkz+nx4o6KBItasPcODeqGsPxODp/MYwnTNmPwbmar3/vdvF+ICyPt3MiNn+deqPrYd3wFpIlHOCBQR24jvAH7XoPXUmnid14in+jdmC+G5CNM1fPLPODkYe5S39hPh1yI26Wu8hEGFvo80P3sUIrEzSAOJch8J7NGnEV8NKcFmUM4mQ1KBV3i5bjjpdwW2I0zX6P2BDXdJlWp/Fn/gNKS1CLk1pOiHtYMfg/GP6NzNqMpPZLVbAn4JRAKzkilBpuvGcCRWUB+Nle7+wIeluooxcr2Bc//DrZP1td9a2mu8nofPYMgaL0gh/OwHwIjbH0jaRmRRJ+A5XfOx78CJ95eM6wK7IGfGdWNpGh7CdBGua+Dgz1BsZtrDTOJiEasTRSyUYQNVHBzrMa3EM074GA3oJLLNTcGlcFqtzbRAqPrAgJ5KP/dGuC7Cdg1wAFr9JLkZfmYk7bx/BzuUYUdfI/A2cAC0iYfIhrWB3excUOCHE91pGUQDr7OjYFBNaS4OOVoxRmnOfPCnEg4/JAXTRPhFxAZ+JMMBnfvAgc6DiIraeYls7ASKhp2m+tk3QaH39HvYCI7IWssq9JFZqe8NaKr6vhzLeO33LXJrbFYa3X+IaVipT/bJoOKPIB5egLIjDSJyBIFSXwH8HCh4qJ/rxtrEC7w6HdBQw11SIMPbgHjNbTJiFFLv/lvG6sXOfhf9cJXbes1HuH0ip0UCe4YNECXDh0I+exveY/ejMBYHw6oVS1IfKoqw3UzWiGPzT+vkNKC/i8BBbdMHqWj9yPdxVNd0ze85H1Inauclci5BXjsMi1vJIld6p+R2XioWgiNIpV24kEUrxsjRfuf/o5V2dQ4LpVTxX8AbxGYd5JPuqR8Bw38DvsqkGURuqg2cAXnuguScgfTy5VdTXzfWeG//14jX3CYdS/G+v12s48f7UeM4DhHRaoiOziONIHIdaT7PEAh5x4sEqCiShuHExIusXDzWNzAH4bv9dQCRqfyTlBzAChy7ldYaL3R474Lx3wNMHX1ELo4EdjMcPcbAEFYmi2CpFgWbxHPsaApNQe2V4+Rg2vn/KKU5NiuF/oPFYPxFaa1ZawVnsV34PdfgOHbSACIivS7AzgHjuAvy4aoUC4RxsY3XioUs0Ac2AGf470vXAdRNlD7pE/q7gFeJzZD7p17QDGs+VggO4Hxaw0VE1F1aUDz8MtXHfpZcU923UW2C0HuB3iTUU1EwHn2Yh9PsCoyHp+itv6IXkE+beBn781OqX0QgwvltvIRdQ2+YiKjPaIB/Fozm2cTVWJ8Gpop1rA4MMtbLqLCWqlvllGsBFaPlhrZHegEhzYXftUZvcQ6ncL0XTNztezx06hMRpV4bOEtL9Az8rk8ngAW4VbxMPNY9aAhhvA13SRUpr/2eqK/9bu6h008Ty1mp2AXpR9/tvB9CSjMFvp5Pb5SIKF0noK8rw90E+vLS9j6Lgj/gx3saw41w3mAqA0NHKmrz/RIaf7cdhxquON/BqlMI+38Mkcw3aA0XEVGmdQE/u0iUsCf6bCPexmq1J7uH7bbP5CGE9fbZ+z9WrolO59Xd3/ezqNjSZ6dfFE79F8D4P09vjojI0NoAuxYM7D97GT0m1E2sTMxj3U0SitRP0mcFar0V/2pvl2vVOd3sLMS8fwM/3MsadWwC+oPwsVEYudDbIiIygcDIEFS0psepQz4eET+EVGAuj566OEQKIry3l7VfOE6sodtOv1W8tJdx3tgHsFPzea6kN0REZH5tYIjqY1PB6D7oYd1Yi1gOqcBJnYIds3lFaJwc7iX8b26fcdLab5zlv4TViO09Xkt+AuH+XFrDRUSU1XSAYwfhjcD/t9uUYBsY7EI9FTixP6CjbqI+Kqy7NCBePV4Oi8KTJv8sgJ/9ut6cpHUznfdt4FFa8XCayU9ElPVIYDcbqI8e8/HnwRAbTpmlt40FIRX4VDNPeIq0t7umIIT+Nt4rHT4p9FfFa+xAN3k/ruF6RSvxDId/p3yfiCjntQEf+y4Y5fsnI/LU19hecAJt/1wfxkII8+1u7XdsJj9wQujfIV5i+7o59Q/gTAOSOBGRxShewiQwzp1gpNUnFAVVsZod1gt5SeOuuU063s3ev8Z/TP7BvH8ZD4pd7MSiH7b9vqn62dUkaSIiy9YG2AVgqHOB9yfzdpwk1CSe5ZVdi0cR5nuyA2i+/4S138+werFdRybGk/v3joIjWaYVs8upnZeIyOrpgJ8PBaMdAWnB28k2YiG2ggNYxPUrvo5ZvBXhvp9a+z0D/jxR9GsQm/T+fTXpQN7V/Ox2zeehoR1ERHYh3J6j+tglkBK8mjzJVbGBHxXzeAvCfOtulz45YfHHUXUOj+lThtbpwz30oh9EE8XC5+GduxlN5yUisqUj2M0GayUcpw59jHgCdS0rxXVj4Sm8smtiMIT/ByA9iIoVrBKihlY95PezGYKm9RAROSIaGCT8Hmwj9gncNPQcq4WQP1I5Vq7CzsDoNN4qlrCA6uM41PNn8L3ezj00k5+IyFm1AR+7HIx7nlrEPuhYyA/V3SEdr54gH43NY4fENr2rcDWkDIwkRUTk1Ghgz7Az4KQfo77Kftw0jR9ufEA6qK5j74hido/qp0IfEZHjSfWzgdpWJoXns2ciT/GXxRZ+nVY8nEJ+F9L/B7FFN3ttGQAEAAAAJXRFWHRkYXRlOmNyZWF0ZQAyMDIxLTA1LTI4VDExOjE2OjA3KzAwOjAwy78p+gAAACV0RVh0ZGF0ZTptb2RpZnkAMjAyMS0wNS0yOFQxMToxNjowNyswMDowMLrikUYAAAAASUVORK5CYII=;" parent="JEBXCWIfqeOVVR91bjjy-15" vertex="1">
          <mxGeometry x="10" y="16.170000000000016" width="30" height="27.66" as="geometry" />
        </mxCell>
        <mxCell id="JEBXCWIfqeOVVR91bjjy-18" value="Ubuntu" style="text;html=1;align=center;verticalAlign=middle;whiteSpace=wrap;rounded=0;" parent="JEBXCWIfqeOVVR91bjjy-15" vertex="1">
          <mxGeometry x="50" y="16.170000000000016" width="60" height="30" as="geometry" />
        </mxCell>
        <mxCell id="JEBXCWIfqeOVVR91bjjy-21" value="Proxmox" style="shape=image;verticalLabelPosition=bottom;labelBackgroundColor=none;verticalAlign=top;aspect=fixed;imageAspect=0;image=data:image/png,iVBORw0KGgoAAAANSUhEUgAAAQAAAAEACAYAAABccqhmAAAABGdBTUEAALGPC/xhBQAAACBjSFJNAAB6JgAAgIQAAPoAAACA6AAAdTAAAOpgAAA6mAAAF3CculE8AAAAB3RJTUUH5QYGByQHSrXobQAAAAZiS0dEAAAAAAAA+UO7fwAAKg9JREFUeNrtfQmYVcWZ9mERRURJGFkmIRGTSSITZdBfw5j4wx8XxDiGJKOjyYyjccI4cRwvJqJGwAUXVERcQMUFlEHjgqKC+w644C4oLsiife/t29vtfe+u/3vrHKDhnu6+W9VdzlvP89rYfe85VV/V91XVtzoOW0G1eMjpWzrNGVgyzRkSDjnDBd8V/DASciZEpjn/Jvi9/P9Mwa0eFpSEnEcE67rgPfm96gr8brfPPILvdnnOTDxbv0PehXd67x6OvqBP6BtniI0tSy06zRkcnuaMFCYbIxgvmCzM9zvBhR5zPiFYL6jdnaEtoNZ7N/qwAH1C39BHr69j0HeMgTPJxpbc7j5AmOYg2X2nCAOdL7hZsEzwssdslTlg9FRR6fX1Za/vGMP5ekwyNoyRM83G5jJ8n9g0Z5gwxyRhkosF9wvWCrYIGguA2ZNFozemtd4YL8aYMXbQgCuBLVC7vNyjDxYGOEcYYbngM0FEUCfoKCKm7w4d3lgj3tiXgxagCU8HbMV1hw85fWVxQ1k3Wn7+i/x8TFAq6AwAo6eKTo82j3m0As2GRKlYZCtAxh+MHU0W8cmC2wRfkulTFgZferQ7GbQETbmy2PL5aN8/PM05QBbsSYL5gjU50s4XG2o9Ws7XtBUag9ZccWx50WRBQnN/tCzOOYKXBJsDcpfPhe5gs0fjOZrm06gzYMtRk/vpCFmIoRJXs11SZFr7QrAqlID2gj9gLrgi2Wzs9vvKwhsnmCeI8V6fN/qCmDcn4yIhZx+uVLbs7vbTnKGyuCZ6i2wrmS5vgbm5GnOFOePKZcuU8QfLYvqF53a7jTt+wZwItnlz9osSuiKzpaHR30sWz2lyt3xIfm4StJGxCg6Ys03eHJ6GOeXKZuuN8QfIHfI4WTQrvXsltfnFYT2IYU4xt/Q2ZEtosjBw1Icp7wVBM5mmaNHszfHREToWsUURfRdyxkZcG341GSQwqPbmfGyUJ4KAmvRCzrfDbkDOWh71A3s1WOutgW+TI4Jz3N8z7MbbrxCUU7MfeIsB1sAKWRfHy2lgD3JIcR/59y8JOUtkwqOCdjIA4QFrIQzTIdYIOaW4dvz+MqmjZHLP9WLQueMT3V4LSlyz79mybvaXddOPHFTALRZyBslknihYJWjiAieSRJOXu2Ey1hA5qQCbSPKhIsWne448XNREOtiENYS1RI4qLOb/kWChTGAVFzGRIbCG7o1Mcw4hZ+V5Q6IIkdjHeBlpeeQnsoVWwTpYj5iMJF/t+tN0fP50T8NPRR9hAg2CawTfIcflz67fTybkYC/dNBcpYQPPCo6gF2Hu7/qD5Mj/a5mM17jrE5YdiNbL+vvXEloJcmTfn+YMk0mY4WWPpSsvkau8A7QSWL/vh5xvChYLargQiRwjLpgr2Jecaf6+36c05HzfK0jJIz+RT4FFT2BtstSZOebvGw05hwqhXyXzE3l6JVgt+JlcCfYkx2ZX2YcIvp97yRxaudiIPI4l+EBwCrMTZ4/5+wtOEOK+y9x8RIFcB+B+PlXW7UBycKba/pBzvBDyc2r6iQJDmazbM8jB6e/8AwVnMkcfUcBoiUzTYej7kaNTM/MNF5wHKcpFRBQ4UNz0eqxpcnbyzH+toJKLhygSYC1fVcJsQ70f+72dn8xPFKNO4FwqBnsWAGfy2E8UuRA4k5zuY+qDtp8KPyIIxUk8yxbzCmx38oGd3zP1cYEQRQ+sdW/NB9tjEO69noffu7TzEwFzFnpbMAE8ENjAHs+3/wV6+BFB9BEQPAceCGQAkRfV9yp9+4mA5xoED4wMmq3/mwzpJYgdUYSPgyeC4ts/zEvmQeYniJ1CYDF4o9g1/oO8NF7M5EMQuwI8MaNocwwie6+XwPNLTjZB+OJL8Ei8GGsSht3U3a/R3EcQPZoHwSMHFxvzo2jHA7z3E0RS+oC7SopFH4BSSmG3Yg8nlyCSA8ra/bkoypB5tfqinFSCSAlR8E6ha/1/FHYLdfLoTxCpXwVeBg8VKvMP9Up0s0ovQaR5FQAPFVzloZhbsw/3/ipOIkFkBPDQBcJTexfKnR9KvxPDbmpkTiBBZI6NgmOjheAfIJ0cJZ1dxUkjiKzisUgh5BSUjp7Lez9BGDENnp3vu//+0skIJ4sgjGQS2hTN11OAdGwP6eASmvwIwqir8ALwWj4q/5DUM8xJIgijCIPX8u3eD8XfCkE7J4ggjKLd47VR+XL0HyCdOUdQzskhCCsAr50D3suH3X+sYC3v/gRh1U0YPDc21/f+wYI5jPEnCPsKQfAeeDCXu//RgmpOBkHkBOC9o3MV54+7/4ucBILIKV6M50IXIEePSWHW8iOIXAO1BifZ3v33Kgk5K0l8gsgLD8GV4Embd//fhlnGmyDyBTHBqbYSfewreIiaf4LIG6C25n3gTRu7P2P9s4TSS7+tYteMUeXzj9yJG3+iSmeNVJEL9iqacWIsGBPG1nWsGDtowLWQFYAnTzSe5ivspvliNd90GOFPe8iiP0jFHzhL1a9eoJo/XqVaNr2qWkve24mv3lFNG55UDW/epWpWnK/K5x2uwuf3K7zxSp/Rd4wBY8GYMLauY8XYQQPQAjSJXfn9whxr/pwCzKYPkxdMFGwjsdPY7WcfKAv9FtVWulF11JUp1dGuemzy947GatVW/oVqfO+vevcslLGir+gz+o4xJDVWoUlb9GNV/9rNmlZcM2kBvDnRFPPvK7iRLr+p7IL9Vello1TdC9eojqYkGKG71tkhjBRXDW8tVmVzfqyfm3enmz8PUGU3HKYa31mm+4o+p9UgDIRWoBlol49jzXMX4asjIWcfEwJgnGAriZwkQ0wfpCrvnqJatr4hzJAm4/u01pL3VdWSU4Th8kdHEL14iIr/9T9Ue8WXWRsnaAbagYagJddU0gCPjjMhAOaRuMnuhntqhmjLJkN03STry1X1g1O1TiEfmL/22St0n0w00BC0BE25tpLGvGwr/0Z4tkYSNxkBcOFg1fD6Hcpka68uUfEH/yBCYEDumP8v33CZv6nG6FihF4hcuA/XVgp+AeDZbLr9hnj3TwHT+ur7cPOnz5njis5O1V611d0dc3ASiF68n6p95nLV0VBplPlBw7Lrx2macm0lrwsQATA1W8w/oMSNPSZhUxICfVTZ3ENVyxcvpa8Q610KqI7aqHsSsKgTiEzfW1U//F+qoy5mUMB1CPM/q8qu/bGmJddUyu7BayPZCBLyinsy11+aqLjtONX61dsGhYDck0s/UZV3/dKKDR2njeqH/yjMX26U+UEz0I5rKKPcgZkVF0V5Yi/hRyMJmokQOFa1VW42elSGf0HFohOMj6XyzhONKfx2jCX2qaYZ105GaBBcmVGJcXnAAWG3ui8JmiHiy/7ddQAy2OBdp4/MpgTZ7cer1vBHRscAGlXddxrXTHZ8Ap4HD2ciAE4SbCYxs+EPP1BVPzTV7O7Z0a6aP3lKxeb8ffa9++b/o+fTYO4qo82bQiPQimsmKwDvnpRutt/B8uX51P5n1zmo5onprlegSeXZZ8+rsuvGZkd5Nq2fa9H4/EWzzC80qX70f2jvz/IpQK7w15ankytAvniIPGANiehFs136LRW76u9U2bzDd8Xcw1TpFaNV9C9Dk1LCafPZ05eqjoYKczKgvVW7Dcdmfy8zIQBLhlwpIFCMHvuFFqAJaJNMkBFoDZqD9rvPB+YoOnNEUUVTZog14OVUd/++8sWTBbXBNeP1U7Erv6cqF/9G1T41QzW+94BmBAS47ILYRh3pVr9moexg58k9eZKKzti/V++5ulfmaUY1KgTWLVGll6UfbovvNry91Cjzo591L16radIjzWYMU5V3/pOmMWgNmoP2u88H5gjjxpxh7jCHmMsACwDw8Mng6VQ8/4bIl24LKtHKrj1E1ay8WC+m9uqwUkkyamdbk2or+1w1vv+QVvph0XbPXKNU47p7zTPXyzekdaxG33GKMCmk0MCs0VkjeuwHaAmatldu0TROzlWyVc8d5hBziTkNsBC4DTydivJvdBCVf3BtRfw6Am46M3FvRfRebUw1b3xGVdwxuVt33dLZo1XTR48aPl5XyW44KyUhgM/WPjtbdbY0GO1b47vL5Ch/QDf+BgM07UBD0DIT/QPmErkIqh/5o57jgCoDR6dy/z8rUMq/8/ur8puOVM1fvCw7TIv2sMuWQq6ztVE1vHmPvpcm3sdxxz5Y3vuScGqbOSHQGNduu4hR6FUIXrSfqn1uthvSa6xDbXrMMW2y7JOgdwCtQDPQLnuKx06Z22Y9x5jrgIUZg5dPSeUEsCI4mvm9VdV9p6r2moh5n/a5h/n6tO/QshsUAu3xr1QcEYQ9hNZqK8XjFxi1UuBKoa0UMmbfGIq5hmMoQAuZ66olJ+u5D5AQWJpKwY/S4Nz3fyxHzFJlvHW06xRY5Tf91NdaAM83XD0Q5GNs4csdOv7Amb7BQzhyQ0DgMyYDmFq/fldV3DrRP4WY0AY0SjtxSiq0qNpq1GkqH7MFJWsBODhIx//oJX+j76I2mt795OiLhJgJJwE5ksLTzlQOgR1utpWbVcWCnye6+N7zazklfG323TI2jDHh+C20AE1AG9NKx676B8x9kK4B0WS8AkvcUt+BUpLAXo4cdraEQMuXq11Hnd3vv7ILVsrRtLO1yWgfWsMfqvIbx3fJ4Tde+9+bVUZWqso7JvucfvpoWoAm1phf5lr7SARPGXh6b8f/PvKh5cEjTB+tkNJ3T4P38K7KwaaPV7mKQd9sQmd5LsOmrgOd+rqBXRengbbIR0bfhbEg6y/yBiacwGaNVC1fvGzUy3AX5aPMsa/yMRghwvf1KABiIWeYfPCzwNr/5x2uFVS2diKYAEuv+K5/3MAj55iNt4dOYuubOoDItMIt/tB/+vr3Y+ymzaAJykekWQ+uP8BGuQYM6kn7f7wgEmTXyfKbf6YVVSaVcTsXZYtqeOse35NAdOZwVff8VWbNcaY3XJgfn57l6+WnTX0ydtDAPKFd5SPmNuBuwV9HQs5RPQmAiwV1QU/lXbnoBK0ltsIkDVWa0cHwvkLgpevsMEm2ea6tWTsTdTsuCDcZu42GucScMsW4Uy3XgPN6Mv/dH2bNP1cZd9dJsoNV2dspV81QkYv29bVSNG14ouAEABRtfl53GCPGautk014T1jEErDikAd5e0p3330Fh5v7bVRmH+H0dtWf+OgDnG/euvJfvjtm0foUdBWUW7tpNHz0mfR7mG1WJMRoNh+6qfJS5085PDDHuileifm7BcjSYIn/cQgLtlvwSyrjaqB3maW3U2nK/3Sp29Q+sKijTZv4PH/X174cFANYN7d5rZeeP6MSlAfP2SwafQ9fnd/8/n7n/uil88czlqtPKriULt7bU/74KZ5mbfmrVWSYtJyd4Ovo4OVXe/Ss3qMdGX2SudAAUawn4ATq+c/2y/9xM4nQjBGaOUHXPX510WHCmPgKtJR9oHUSCEIC77K0TVWt0g5VrSUpa9q/WeUE2/RKZX8aCMVmx9SMEWubKz7JC7KwcJCf+vbve/0fKL5eRMD2FCn9TNX643JL9rF2nxfY1W/2pvw6TNZ1gNKXuSl90Fl+fQCdtVkVadAv+/Vr5+PZSPVdcsz0HBkW6Vg6SX4xh9t8kMuRc+rdaI99p6SSgXYZ1VZw+CdmKwHAd9bkXAriyVCw8JjHrDtKJSd8xBhs7v9Y/yNyUzhrJtdo7wOtjugqA8YINJEwSQsBL4mHrHt6y7S2d587PSlG9/L+tKSh9d355d9XS3+pTSYLSUvqMvtuzPDyq54ZrNCmA18d3FQCTBZUkTLIpssd7Yat2zHKN796vSi//jq9NHRmMOgznMvDd+eNf6/x8fr4L6Cv6bEcKtblh1vPHc20mj7KSkDNpuwNQX7kP/I5ESc1RCHfbli2v23EZbmtRDW/cpTPhJjoKDVV1L8zJLIVZOo5Lz1ymohd/w8e/f7Tuq5tZybzyEXOgdSV09EkF7YLTwPtOacgZKALgIhIl1azBffXd13R13B1rvblW1T53lU7Z5ecoVL/6VivXEryjfvUtvrH06FvdS3ON5xLc6UZd6ekfWDk4ZR8X4Xnw/vYMwAtIlPROAtDIt9vIKLRdCDxzua+WG9F2jYisM6ltl2fXr73NN7IPfdL+Es119pSPvvkFiCSxQGcKln8MFzxJgqQfPIT8ch22hACCbJ6e5evhVjprhGr6eKX+jIn34tmlPim80Rf0ycR7/ZWPpZrmDO7JCOD54RAA3xWsJ0Ey8RbcTyvjdA0BS3b3+AO/98nt10fFrjlINX3yFM7qWffvj139w4REGugD+mLLLwE0Bq2TqiJE9IT3Bd+BAPhhoCsAZbGmQO1TM61FEEILH7//jG4UlEepli1rs2N/1/4Ir6nyG4/wvWujD6ZzCe5UPlZpGgc0t3+2USX4AbwAJ5AY2UowOlTVr1lgKa1Yp2qNrnc98BIy/O7heuAhy3BGLsNe6jB5ll8mYZ3JWPpgwxICmoK2oDHXWtYUgRMgAE4nMbJI1AsGajOYFddXxA2EPxRGPC5RGSa7deWiX6iOmmhGx+3yG3/iE9zTT9dAxLvt5PJr1zRl2fCsC4DTt1cBIkGyHDeAe7gtpVjL1jdU+fx/9D2iV971S2HkktSZH1l0EJDkY/50TxfvWRmbVj4KLenfb0QAnAEdwCwSI9s+AlDGjdGKs6SLWWbYmj99VpVdd4hvwY9qJOFIwUoBgRFfdrrvsR/vwLvsMH+Tq3wUWmZU5pzoTgBMd+gDYM5RqHzeEVqBZuWYLA1mOr/S5PDYq1n5l6SEAD5T88R0FfFxOEK58OaPV9lxN9yufJx3BB19DPoCUACYlLBQxt3yf1Wr0bz7Xc11Lap+7e3dCIEhqu7F63p01IFnXc2qGf5ZfOWZDW/caSkIqlPTDLTzO4UQ2RUAC0kIsycBHJutOQqhGrEwql9YLE4CDa8v8q08hN81vH6Hr30dz9LMbymdF0qI6esMd37zAqAkkJWA7KNq8W90hV4rQqClwU017mMy01aKt+7ZxUqh6xMIg/u6+CLYSJ5ly78fNAKtuGbsJAaBAFhHQti4DgxwnWaqtlmN2ItcONjnLj/K9RaEv4JAZ/H1Ce7Bd/EMaym8Zed3lY8DuGYsALxPAWBTCCB+/4kLzJb86ioEkGr8wandXEvGqqYPl2voQqV+Xn7y3Q5LyVBBE7j4+gksggKguFyGn77U3q5auUVV3Xear8tw7MrvafhF1OE7+K6104rQhC6+ORAA4QAXA83ZSeDPe8mde5ElR6FO1VaxSVUuOcW3NLdfifKq//03Yf6tdiwXbU2q7tX5miZcG9YFwHsOCZFDl+F1i61p1lEcs+L243q8X+Nv+IwujmrLYiE0oItvzgRAAwVALhOMzhzhKuMstdZtb6myuYf6e9Uhi6/8rdVSIk/tuCRjL2X+/pyCAiCHQOy+TpsdUAGAsYMGXAsUAIG8ArgFP9sDewXA2JE9mFeAnF0BGmEFeJ/EsIk+2rmm4c27tQOOFSVg2WdeqbEk8uehNPqSU7Ti0I4SsFnTwnVaYsCPdSUgzYCWzYAzh2uXWz93XDNmwK1u8Q4fRkf+fl1vwM8MKN9xLQE2lIGeG7LQhmuEfgBFnSeg9qkZdh2B7j8zfUcg+a5NRyDQhnH/FABFe+evefJCa0FBrivw5b72dUT2NX2yaqcrsPzbL4IQ38UzbDkt6VBkoRF1AnYFAIOBrAQD/bPqqC+3tvPryj3dBQO9sWhX5aNOubWo22AgHQ9g6yQgNAKtuGYsBQMxHNgwoFS765fW0mbr+3S34cBDutU/7AwHHtJDOHCTpetAmaYZi34wIUjBJwRBws72is12mB8JQcDE3SQEqX32CtXZw06Ov+Ez3SUEwbPtWC6Uphlox4QgFACFy/wLj9YJO/MjJdjFyacEk8/6Ff7UugN5h7WUYEI70JBCwKwAYFJQA0lBy67/B7eEeKcdR5/uk4LuofMQdNRGU1DGRfV3cp0UFLQDDUFLJgU1lBSUacEN+Phf+i3VDB9/K/nzeksLfpJO8Z3yEbyntODyLn2ysXIXaNW0BE25trIuAM5gYZBs2/ov+RvV/MVLdguD3D7JtzBI+a3/T7XXRNLnPfkunpEPhUFAU7+sRURGAuB0lgbLspdf/ZqF9kqDba8K5JeNeHtpsEzKdnX2VhrsONUa3WCxNNhCegtmVwBMYHHQrB37/1bVvzpfdTbX2jkZI3mmX6af7Uf0zWuyVxxUntXdFUPnOay2UxwUtAWNQWuuuYzhFgeV/xwQZnnwzHZ+lAdfdYnOq2/HWQblwc/yLw9+9Q9V0/rHs3sFkWfhmd2XBz9L98nK2HXtgktYHjxz7CgPPlzwJAmSrovvXqr60fPs5f1va9aJRf289kpnjVBNG540kmpM1+iTZ+MdCTSYvreqfXqWtVqIoDVoDtpzDaYN8PxwuAIPoS9A+l5+8QfOVJ0t9ZaOwHWq9tnLfZNnQiA0frjcrPIR8ftv3+fvMoxAJ+lbT5WHskoLoXmVb55DIlkfAPC+UxpyBkZCzkUkSKqJPfdUlYtOlCNphbX7by2KffjU7IvOHKbqX7vFStkuvAPvwjsT+iF9Qx9t6UFAe8wB5oJrMmUF4EXgfScecvrK//yOREnRv//uKaqt/AtLx35U7rlLlV4x2jdYp+6FOaqzqUbZaniXrjzk4y2IPqKv6LON1lb2uRYCPAmkhHbBaeB9B03+Z7KgkoRJxsuvnyq/+SjVgtx5llx8kTZLJ+7YXYqj0MiK81VHBrb+9K0QX7v3cOlDghCQvqLPdo4B7apl81o9J5gbrtGkUCbH/0nO9ia/GC/YQML07uJbPu9wncyy05aXnwia2FV/53sFqV7+3ym5+GZfGRdV8b+e5ZtnEH1usZRgFHOBOcHc0GU4KYDXx3cVAGMEL5Mwvdj6L/u2av78RTv+/dr+vlqVzR2XuKhlp6u47VhrIcY9ngRqS1XFwmMSd1+dZXicHoOVk5LMCQKV6DKcFMDrY3YIgEjIGSm/WEbC9MT8o1TzxqetHWtbv3pHe+Al9OVP/VXFHZOtpRVLqrvSl4rbj/d1FNIeiTIWW9mPMUeYK67ZnhOBCM+P2CEAoiFnsPzyZhKmOxffEarxnaUW/fs/8LL49k9QPpbfOkG1RtcrGxl7U+i0dksun39kojJOxoCxYEy24gYwV1EWHOkJ80pCzt5O1ya/OF/+0EjiJGbDcbXs1daO1JWLfpHI/HDxvemncgV5yZr+IdV7OPqGPiYGD4kQuOdX1k4tmCvMmV9WJMKpE5zr7N5EAEyRP2whgXZNpKHz4VlKiomUW1Cq+Zm0Ylf9QDV/+lxeMn9XIYB7uK44nKC0HCBj+w97acV0UtTLfE2VAcfnguMTBIDcCQ6SP6wlgXZ61lU/dLbqaKiys2CbalT8of/0dW9FBFzTR4/ZiTLM+AjTqvvqF7WHsWGMHZZ8FjB3mENmGd4Fr8iVf3SCAIiHnAHyx/sFHXT06aeqH/mjtcq9erdaNcPXpo4Y+KYNT6hCa03rn/B1Wcbvap+bbfFU1ajnko5CGuDtJU53Ta4BF3t3hAAzv9xX7zhBFmi1tV1Ke9X57Jj4Xd1L11lLxJld78VmVfvs7O7HJWO2drqSucScJuhVgodq4fHzuhUAuBsIIoE99oP5756iWiPrrSS5AGM3vHWPr8Z6B5NY2imNnWwQvOSTyQdjxtitCDckNpE5xdxGgi0Evpar/lHdCoBYyBkmH/osqATSNuutb1qzWeOuXHrFAf76h0fOMas1R8LNbW+6WYOMWjWiqvrh//IPX5axa92GLd8KmVtf34rgYKPc/wd1KwDiIaePHBEeDWQW37mHull8Ldn6Wza9oqI+Ziq4+MIS4Hr5mTqFeKm+5h+pKhb8XLVFPjL6LoxFuwz/OdFlGDQALWz5COgswzLXQXQZFt6+z+mtyYfOCRphYtccpFq3rbPnt755jVuQc/dy2Lo098nGlY/aaefG8TtPPvLvNuT2M6yMq1x0go8yro+mBWhiy8SJucacB/AEcHqvAkCOCAfLBzsDY+uXHajx3WX2nGW+eFmV33Skr7MM3GnbyjeZPZLHv9a7fkL6cGFO/M1kw9i0y7Cvk9ORmja2hADmPBosR6FO4e0DehUAnjmwNDC7/5XfSytvflrHzy9fcz3lfExSCO5pLXnPqPIR49S+Bj7Re/gd/maUFlDGffWOqrhlgq/pFbQBjWxcwzBOP4elIsY2J9km14AVQbL5Vy3+jWqr3GJ0wbVsWavKbjjMN2AGd1IdZWjQ0Qehu1AsRqYP6t4KIn/TykeDIcb6FPTpc+493CejMWgEWhk9iZR+oqru+XXQfAOWpiIATg3SNQBH0rJ5R6jmjc94iS2ztAt3dui7b8Nbi12/9ATFk9x/rz1Y+9AbZX5tjputIhcN7t0UKp/BZ42aH2WsGHPs2h8n6kGERroasdBM60Kyphzs1HOLOS674f8EzScAvHxK0gJAPnygYHPgfP//8g29A7ZseSMzd1U56iJfHXa6yrt/1W322tjsA42HGCN5JjL2ppI3D5/VWX4Nu+ziHu5nBt3uNgzagYY672IGVyPMJeYUc+vnnRgAbAr7uf/2cAJApuDbAhsBePl3Vc3Ki1TzZ8+r9ppw0jX+sMO0y1Wi8YOHte27p+QUiFlvXHevYWtjm3a2SSdpJr6DSjydhuMPGtYtUdFZI3oouPItTUvQFLRNOvW4zBmKp6CQKeYScxpg+/9Ngv2SFgDRkNNXvnByoCsGTeunlUSVi/9Z1T41QzW+91c5tr6g2io27YrYp6rp4ydVwxt3qprH/6Qq7/wnFZ0xrJcowyGqfvUCo8d+3LUbRMAgi1EmGZDwDJOaeTwbobugSY80E5qCtqAxaA2ag/a7z0fzZy/o60PNkxdqz7/S2aODnisQPHxydHsC0BSuAYcI1jCAwj2OYidCnruyeYfvihsO04ssOmP/pOrYo6INjtemXXwRQBS75keZObzIdyEEG9/5X7MGkvoKTZNkqv2AxqA1aA7a7z4fmCO4USczFwEBePgQJ9XmZQmaHyhloGkdA/LmPzXTbKBRZ4feBV1vt77Z8ZK8/h/0M01664Em1Y/+D3P8Z1n5Fwk515aHnL2cdJo84KQgKgON5Rd4cKrZRJ7axfhVFZvz99n3l5Bn4j5t0kYP2oBGjN/PGsC7JznptrBbOJTZgrOAnf79Bl1cIx/phKGmxoAjt+ngIdDIt+oxkY7p7/lwMt5/PXgF9pcjxBzmCswMSJtt2s22vXKzm0vQ9FjkHW2xjWYddeT5OtU4104maBBcCR52MmkiAI6RB4VJ0DQZ5rbjVOtXb5u9P9eXu7kEbSi+vICl9uoSo1cZ0Ay04xpKG2HwrpNpk4cMKAk5r5OgaVQRunG8jnIzyvx1MTfefvreVq0iOl+iLoneaU6Z+emzqgzegqz2k07o71rwrpONJg8K0RqQCvO7Pu3wYjN6X26o0vbuXJi88M74g39wg4cMBjDpuIHrx2XHohGg+78IgLOcbDV52Ah5aIyETZI5LhqsPfCMMj/KhSPnXg5dW3UE4YNT5ToQNjrW+tduVpEL9+HaSh6xaMgZ4mSzoZoICZusG60ckR/+o2qr+NLYnb9m1SW9es/ZOglUPzRV98mMQvBTFX/g9/QPSLHyj5PtJg8dh5hiEjdJxpg+SLuitmx9I6s6AJTYit//77IjDs6fsV4wUPdJl//Kpk/D5tWq8o7JVvUbxRD3D141IQD2FdxIXUBqYcYI+oGvewdKi6XrRCPMANfhhnWLtVIsH91c0Sf0DX3Ubs7pCj2hEb5f8/QsN46B+fxTtf1fHQk5+zgmmjx8Ik8BaQbWzD5Q1a++RbVFP3aPy70JA80IVaqt7HPV+P6DqvzGnxROdmXpK/rcVv5FcoIPY62LqbbIek0j0IprJu3df6JjqpWEnKHygoWCNhI7PRt67Mrva5t9/ZoFqvmTVdp1F95124ErQ9P6x1XD63eo6uXnulmECnEXRIqveUe40Xtv3qWaNjypx7bLWGXsTetXaFrgCqFzA3DHTxfgyYXgUcdkk5ec6CUYINEzPRXIETc2Z4xOiLkdZXPHqVJEsxVRxhodTTlrpB5b17Fi7L2FThMpJf040THdRMLsK3gozBqCBJFPu/9S8KZjo8nLfisoI+EJIj/s/oJTHVstHnL2EmmzkoQniLxw+10ZTzfmPwP34Eny8hZOAEHkFC3gRcd28wqIvMgJIIic4sV4toJ+0tAFHC2o5iQQRE4A3jvayVWTo8dgL2EILQIEYRcd4D3woJPLJh0ZG3bzBdBFmCDsufyC58Y6uW5RVxeAkuLlnBiCsALw2jnRXN39fU4Bo8JuQdF2Tg5BGEW7x2ujnHxqcheZHGbuQIIwDeT6m+zkW5PjyB5eoBB1AQRh7u6/ELzm5GOTju1fwkAhgjDl8bcJPObkc5OOni1o4oQRRFYBnjrbyfcmndxf8BgnjCCyCvDU/nkvAOSI0s9TCH7JSSOIrGCj4FjwllMIrSzkDJIOXyiIc/IIIiOAh6bHQs7eTiE1L33YvYJWTiJBpAXwzr3G03wZ9A04RAawjhNJEGlhHXjIKeQmg5gSZnVhgkgV4JkpTqE3lCeWgdzECSWIlDAn49LeeXQKOEDwHL0ECSIpbz/wynecYmolIecnMqj1FAIE0SPzfyi8coRTbA2hizKwfw2zshBB+DK/8Mdm+fkv8UKx96dxCoB/wHT6BxBEAqqEP84HjzjF3GDTLHGjBplGjCC89F6CGwrW3p+GEBgSCTlPUB9AEE6nxwv7OkFq0ZDzfREEa3gSIIK884MHwAtO0Fo85PQRAvxMCPABhQARUObH2v8ZeMEJYhMC7Ck4JcwkIkTwsAlrHzzgBLnJ/WcfIcbUMIuNEsEB1vpUrH2HTZ8EBgrOCLPWIFH8aMZax5on5yeeBs4VAtVykRBFilph/LPI6d0LgP0E1wuhKrlYiCJDJdY21jg5vWchMEKIdRV1AkSRMf+1WNvk8OR0Akgvfi6FAFEMx35v5yfzp6EYPBNKEy4iooAVfmfx2J/ZleB4IeIXdBsmCs3UB20/OTjzk0B/wQlC0PcEbVxYRAEE9sCxbSpNfVn0GBSCHi14Mcwsw0Seu/fCw49OPtmPHegrRD1UiPsarwNEnib0WOPFt+xJjjUUQCTEHclQYiLfdn6sSUT1BTawx7Ji8JuCJUL4Gi4+Isc5/KqQzCNw8fx5IASGCdFnhN08agwnJnKSw89L4zWUHJkb5eAgEQS/lslYzSsBYTt7LxJ4Fn0OvwLQC/QLuyXI7qfTEGEJzyF1d9Fm7y3EJpMyQiblAvkZ5WmAMASU65oTLraiHUV0GugfDTnHyAS9LGjigiWyBPieoMjtlKIp11XkuoEfCW7zNLRcwEQmQA2Lewu+Sm8AhcDQsFuEZCMXMZEmsHamU8tfoC0WcvaWCTxW8BivBEQKaPLWzLFYQ+SkAm5R10qwv+DsEjdIgwpCoifbPtbI2VgzUWr5i04YQBCgLFlY0M4FT3ho99bEQqwRckpxC4E9IiFnskz2CkE5TwSBd+jBGliBNYG1QQ4Jjt/AKME5gtfpShzYuP3XvTUwihwRzNPAAJn8sRHXuaOaTBEYVHtzPhZrgJwQ8CaLYXCXhCMsTlK8aPHm+GjMOVc+2y4tLruBLIxJJSFnpSySGFOQFQUwhzHMKeY2zh2fLQlBsJcsmlMFS738bhQEhcn4m7w5PBVzypXNllKTXWNfWTwneqbDbbQYFIxmf5s3ZyeWMFEHWxYEAdyKJwqu9hYXGS0/sc2bo4l032UzoSxEKfNxgnmejoAngvzY8WPenIxjNl42W6cC5B9A7ve1nhdZAwWCNYYHrcOgPSrvREPOEK5ItlydCmA5QA6CKwXPezkKKQjMMP5mj8ZXguYRavTZ8shy0F8W5gGCkwTzw26O+FoybubFNUFLVNf1aHsAk3Kw5XWLuo5FyFN4cthNTMJTQeq7PUx4N3k0PKScZjy2AhQEfeWOOkQW8IGCUzybNM2JPZvvlnq0Gi3YDzTkSmIrNsGAq8LpIhzu87LOfO3FIgQhKKnDGyvGvNGjwemgCVcGWxCFAWobHCWMcF7YrXb0iuBzQV0RMX2dNyaMbQnGijFHmVOfjS1BIODoe7zgXMHNgmVeluMNqDmf54lM2r0+bvD6vMwbA8ZyPMbGGWZjS0GZKDvlSGGeMYLxsnNOkp+nye8ukp8LBE8K3s9R9uMq793owwKvT6d5fRyPPqPvUUbdsbFlr6FMemnIGegpF4ejSIXgB8JsEwSnC86IuNmQF3TBUvn8ui54f3eGxu+6fsZTxu14Bp7pPRvvmIB3eu8ejr6gT3Eq7Aqu/X+AnihvC758EAAAACV0RVh0ZGF0ZTpjcmVhdGUAMjAyMS0wNi0wNlQwNzozNjowNyswMDowMPnRTlUAAAAldEVYdGRhdGU6bW9kaWZ5ADIwMjEtMDYtMDZUMDc6MzY6MDcrMDA6MDCIjPbpAAAAAElFTkSuQmCC;" parent="1" vertex="1">
          <mxGeometry x="270" y="118.61" width="50" height="50" as="geometry" />
        </mxCell>
        <mxCell id="JEBXCWIfqeOVVR91bjjy-56" style="edgeStyle=orthogonalEdgeStyle;rounded=0;orthogonalLoop=1;jettySize=auto;html=1;dashed=1;fillColor=#e1d5e7;strokeColor=#9673a6;" parent="1" source="JEBXCWIfqeOVVR91bjjy-22" target="JEBXCWIfqeOVVR91bjjy-48" edge="1">
          <mxGeometry relative="1" as="geometry" />
        </mxCell>
        <mxCell id="JEBXCWIfqeOVVR91bjjy-22" value="" style="shadow=0;dashed=0;html=1;strokeColor=none;fillColor=#4495D1;labelPosition=center;verticalLabelPosition=bottom;verticalAlign=top;align=center;outlineConnect=0;shape=mxgraph.veeam.vm_linux;" parent="1" vertex="1">
          <mxGeometry x="280" y="202.4" width="57.2" height="55.2" as="geometry" />
        </mxCell>
        <mxCell id="JEBXCWIfqeOVVR91bjjy-23" style="edgeStyle=orthogonalEdgeStyle;rounded=0;orthogonalLoop=1;jettySize=auto;html=1;fillColor=#e1d5e7;strokeColor=#9673a6;strokeWidth=3;" parent="1" source="JEBXCWIfqeOVVR91bjjy-3" target="JEBXCWIfqeOVVR91bjjy-22" edge="1">
          <mxGeometry relative="1" as="geometry" />
        </mxCell>
        <mxCell id="JEBXCWIfqeOVVR91bjjy-57" style="edgeStyle=orthogonalEdgeStyle;rounded=0;orthogonalLoop=1;jettySize=auto;html=1;fillColor=#e1d5e7;strokeColor=#9673a6;dashed=1;" parent="1" source="JEBXCWIfqeOVVR91bjjy-24" target="JEBXCWIfqeOVVR91bjjy-49" edge="1">
          <mxGeometry relative="1" as="geometry">
            <Array as="points">
              <mxPoint x="410" y="300" />
              <mxPoint x="410" y="300" />
            </Array>
          </mxGeometry>
        </mxCell>
        <mxCell id="JEBXCWIfqeOVVR91bjjy-24" value="" style="shadow=0;dashed=0;html=1;strokeColor=none;fillColor=#4495D1;labelPosition=center;verticalLabelPosition=bottom;verticalAlign=top;align=center;outlineConnect=0;shape=mxgraph.veeam.vm_linux;" parent="1" vertex="1">
          <mxGeometry x="280" y="272.40000000000003" width="57.2" height="55.2" as="geometry" />
        </mxCell>
        <mxCell id="JEBXCWIfqeOVVR91bjjy-25" style="edgeStyle=orthogonalEdgeStyle;rounded=0;orthogonalLoop=1;jettySize=auto;html=1;strokeWidth=3;fillColor=#e1d5e7;strokeColor=#9673a6;" parent="1" source="JEBXCWIfqeOVVR91bjjy-10" target="JEBXCWIfqeOVVR91bjjy-24" edge="1">
          <mxGeometry relative="1" as="geometry" />
        </mxCell>
        <mxCell id="JEBXCWIfqeOVVR91bjjy-58" style="edgeStyle=orthogonalEdgeStyle;rounded=0;orthogonalLoop=1;jettySize=auto;html=1;fillColor=#e1d5e7;strokeColor=#9673a6;dashed=1;" parent="1" source="JEBXCWIfqeOVVR91bjjy-26" target="JEBXCWIfqeOVVR91bjjy-50" edge="1">
          <mxGeometry relative="1" as="geometry">
            <Array as="points">
              <mxPoint x="410" y="370" />
              <mxPoint x="410" y="370" />
            </Array>
          </mxGeometry>
        </mxCell>
        <mxCell id="JEBXCWIfqeOVVR91bjjy-26" value="" style="shadow=0;dashed=0;html=1;strokeColor=none;fillColor=#4495D1;labelPosition=center;verticalLabelPosition=bottom;verticalAlign=top;align=center;outlineConnect=0;shape=mxgraph.veeam.vm_linux;" parent="1" vertex="1">
          <mxGeometry x="280" y="342.40000000000003" width="57.2" height="55.2" as="geometry" />
        </mxCell>
        <mxCell id="JEBXCWIfqeOVVR91bjjy-27" style="edgeStyle=orthogonalEdgeStyle;rounded=0;orthogonalLoop=1;jettySize=auto;html=1;strokeWidth=3;fillColor=#e1d5e7;strokeColor=#9673a6;" parent="1" source="JEBXCWIfqeOVVR91bjjy-16" target="JEBXCWIfqeOVVR91bjjy-26" edge="1">
          <mxGeometry relative="1" as="geometry" />
        </mxCell>
        <mxCell id="JEBXCWIfqeOVVR91bjjy-28" value="template vm" style="shape=callout;whiteSpace=wrap;html=1;perimeter=calloutPerimeter;position2=0;" parent="1" vertex="1">
          <mxGeometry x="337.2" y="122.40000000000002" width="120" height="80" as="geometry" />
        </mxCell>
        <mxCell id="JEBXCWIfqeOVVR91bjjy-29" value="" style="shape=curlyBracket;whiteSpace=wrap;html=1;rounded=1;labelPosition=left;verticalLabelPosition=middle;align=right;verticalAlign=middle;rotation=-90;" parent="1" vertex="1">
          <mxGeometry x="207.5" y="282.5" width="20" height="315" as="geometry" />
        </mxCell>
        <mxCell id="JEBXCWIfqeOVVR91bjjy-30" value="realizacja z poziomu repozytorium&lt;br&gt;packera" style="text;html=1;align=center;verticalAlign=middle;resizable=0;points=[];autosize=1;strokeColor=none;fillColor=none;" parent="1" vertex="1">
          <mxGeometry x="120" y="450" width="200" height="40" as="geometry" />
        </mxCell>
        <UserObject label="" id="JEBXCWIfqeOVVR91bjjy-33">
          <mxCell style="group" parent="1" vertex="1" connectable="0">
            <mxGeometry x="120" y="20" width="200" height="60" as="geometry" />
          </mxCell>
        </UserObject>
        <mxCell id="JEBXCWIfqeOVVR91bjjy-34" value="" style="rounded=1;whiteSpace=wrap;html=1;fillColor=#d5e8d4;strokeColor=#82b366;" parent="JEBXCWIfqeOVVR91bjjy-33" vertex="1">
          <mxGeometry width="200" height="60" as="geometry" />
        </mxCell>
        <mxCell id="JEBXCWIfqeOVVR91bjjy-36" value="Ansible Roles" style="text;html=1;align=center;verticalAlign=middle;whiteSpace=wrap;rounded=0;" parent="JEBXCWIfqeOVVR91bjjy-33" vertex="1">
          <mxGeometry x="110" y="15.000000000000016" width="60" height="30" as="geometry" />
        </mxCell>
        <mxCell id="JEBXCWIfqeOVVR91bjjy-37" value="" style="shape=image;verticalLabelPosition=bottom;labelBackgroundColor=default;verticalAlign=top;aspect=fixed;imageAspect=0;image=data:image/png,iVBORw0KGgoAAAANSUhEUgAAAQAAAAEACAMAAABrrFhUAAAABGdBTUEAALGPC/xhBQAAACBjSFJNAAB6JgAAgIQAAPoAAACA6AAAdTAAAOpgAAA6mAAAF3CculE8AAAAB3RJTUUH5QUfACMHagoK6gAAAv1QTFRFAAAAAAAAAAAAAAAAAAAAAAAAAAAAAAAAAAAAAAAAAAAAAAAAAAAAAAAAAAAAAAAAAAAAAAAAAAAAAAAAAAAAAAAAAAAAAAAAAAAAAAAAAAAAAAAAAAAAAAAAAAAAAAAAAAAAAAAAAAAAAAAAAAAAAAAAAAAAAAAAAAAAAAAAAAAAAAAAAAAAAAAAAAAAAAAAAAAAAAAAAAAAAAAAAAAAAAAAAAAAAAAAAAAAAAAAAAAAAAAAAAAAAAAAAAAAAAAAAAAAAAAAAAAAAAAAAAAAAAAAAAAAAAAAAAAAAAAAAAAAAAAAAAAAAAAAAAAAAAAAAAAAAAAAAAAAAAAAAAAAAAAAAAAAAAAAAAAAAAAAAAAAAAAAAAAAAAAAAAAAAAAAAAAAAAAAAAAAAAAAAAAAAAAAAAAAAAAAAAAAAAAAAAAAAAAAAAAAAAAAAAAAAAAAAAAAAAAAAAAAAAAAAAAAAAAAAAAAAAAAAAAAAAAAAAAAAAAAAAAAAAAAAAAAAAAAAAAAAAAAAAAAAAAAAAAAAAAAAAAAAAAAAAAAAAAAAAAAAAAAAAAAAAAAAAAAAAAAAAAAAAAAAAAAAAAAAAAAAAAAAAAAAAAAAAAAAAAAAAAAAAAAAAAAAAAAAAAAAAAAAAAAAAAAAAAAAAAAAAAAAAAAAAAAAAAAAAAAAAAAAAAAAAAAAAAAAAAAAAAAAAAAAAAAAAAAAAAAAAAAAAAAAAAAAAAAAAAAAAAAAAAAAAAAAAAAAAAAAAAAAAAAAAAAAAAAAAAAAAAAAAAAAAAAAAAAAAAAAAAAAAAAAAAAAAAAAAAAAAAAAAAAAAAAAAAAAAAAAAAAAAAAAAAAAAAAAAAAAAAAAAAAAAAAAAAAAAAAAAAAAAAAAAAAAAAAAAAAAAAAAAAAAAAAAAAAAAAAAAAAAAAAAAAAAAAAAAAAAAAAAAAAAAAAAAAAAAAAAAAAAAAAAAAAAAAAAAAAAAAAAAAAAAAAAAAAAAAAAAAAAAAAAAAAAAAAAAAAAAAA5p87GwAAAP50Uk5TAAECAwQFBgcICQoLDA0ODxAREhMUFRYXGBkaGxwdHh8gISIjJCUmJygpKissLS4vMDEyMzQ1Njc4OTo7PD0+P0BBQkNERUZHSElKS0xNTk9QUVJTVFVWV1hZWltcXV5fYGFiY2RlZmdoaWprbG1ub3BxcnN0dXZ3eHl6e3x9fn+AgYKDhYaHiImKi4yNjo+QkZKTlJWWl5iZmpucnZ6foKGio6SlpqeoqaqrrK2ur7CxsrO0tba3uLm6u7y9vr/AwcLDxMXGx8jJysvMzc7P0NHS09TV1tfY2drb3N3e3+Dh4uPk5ebn6Onq6+zt7u/w8fLz9PX29/j5+vv8/f4Qr6dsAAAAAWJLR0T+0gDCUwAAFi1JREFUGBndwQ2cjHUCB/DfM++z1uwulmXXW9iychdRVF7LW86ViqTaO5ekN6IL6eqQrqijrpXcS0rliEhWXlI6RTbFyZL1vqV22fe3mdmdeX6fS3Je9j/PPDPzf/al7xc1yOSIS2iTnDIk9eGX39yakZHx33L+pCQjI+Ozl1+ePW54SnKbhEZOE355rHEdug9InfLKuv351FKwN/1fU+8Y2K1DLH5BGvUY9eTCD3b9QJ18uV9+8MqU0T2a4xfA0v2+l97fdcLLUHm/37Vx8YSrnajPovvP23O8wKsyTL6i7J0v35yAekixx7cftSpHZeTUso8eubyZU0F90qzPhOU5KqUpeX/aoLZm1BP2zmNfz6qiZN+99/h1MagHYocv2J6v0gCePcsfSFJQt7Wd/HmOl0bxF2Y91xF1V1yPtFyVxlI9G29paUcdZEoauKiINcH70YRONtQxpkvGvnWKNcW/ZVoPJ+oSx8Mfn/KzBpXvmt8VdYZt4NoC1jT34amxqBPi+qR7WBvUI4+2s6K2Ney1qIi1ZseYJNQq6xWzjqisReVv3+xC7XGO3VrO2uU/mnaFGbWk9Yo8P2udO3MSaoOl5WO5KiNUfPw/z0+a8NirGd97GT7f+p5RCmpY9M3pbkao9POJHfGThr0X7PcxfEenX2pGjWo+O5uROjGnkwlnWQa9V87wVaT/FjXp2mUeRurEg41wHnPHN92MQNbkJqgp0WO/rmKkyh+MwgWU1uv9jEDBGymoEabkRRWM3AIFF2t7jJFQj6Y2hPGibthJCXLao7qpjIx7RhKM1nTiIZUSPOdAda2yGRn/4m4WGCpp3inKcPwaBdU5nmeEPFtuccJArZaXUYo3EiCg9C1ihHxH/2CHUSxX7lUpxamREEp4Q2WkfLMbwxiuW7MoybpLIGROLWDE/Es6mGCA+MeOU5LSP5kh1mkLI+dedbUJ0rmeO0lZ9l6JAOyzyhg578aeZsj2Qgll8S2xIpB+WZSgct91kCvmhSpKU9APASlv+yjDqX5OyGNqO7+E8mx1ILAhRZTi5HgXZFGS36qgRL+DhugdlOP4Ay5IkrSsghIdawEt91OS4+OdkCJqjZcyzXVAS2IeJTk5BjK4XvBRphPdocn+nEpJPLdaELH450oo1WvNoEm57gfKknWjHRFyTTlJqfLuNEFb86WUxf9lfxMi4hx/nHJ9eBmCsNxbQlmqPuyqIBIjT1Ku8llWBHPFp5Sm8pPmCJ9yTR4l23MlglKe9lAa9T0XwtY5g5JVvWZDcH0OUB7/87EIU8s3vZSs6AboEPVWFeXJe6gBwhL750LKtt0JPUYUUx513zAzwmC763tKNx66RH9NiXzbuyAMvY9SuiNx0Oc+yqRuaIOQJX5J+WbboU/zXEr1ogUhilmgUroTPRXoY/8rpSq/GSEak0f53kiATkr/fEq1sztC0nWrn9IV/t4MvZJWUqrKJY0RgqQ3/ZRO/aA9dFPuLqVUpU9FQzfHxFLKVz7DCv0u/4RyZf/GDL2u3kcD7OsJoU4Qsf/FTblWJUInx2oaoOoNO0SaLXFAZMBByuWeAp1GemiA4hEQuu/EAIg4V/opV24KdGm7j0bYaoZIzIaq5VaIjCymZJvioUODF900wr0QGnqU+6+CiGMXJSueakVQpqEHaIQjLSHinOdhyXQzRCZRti+uRFBJS6pohGftEOmyjWR6G4i0y6Fk7jmxCMJyZzGNUNRXgYB5bDHJnNsg4niFsh3tjSA67KUR1H/EQyTx3/yRmtYYAkr/QkqmvtsM2v5EQxSkmiGg9D/F0765WoFAi2WUzT0SmhKO0RCbO0LEMYdnPG6HgGVsCWXbEw0tU1QaoXyGFSItDvOMnbEQ6fIZZVPvgoa2u2mIrP4Qut3HMypvhIj9OQ9l2xaHgGzPV9AIVf8yQcSylWe9a4bI9VmUrXCCCYH0y6QhCm+E0HXFPKuoM0Rsy3yU7ZP2CMA110tDbG0IEUtaJc/yzITQiGLKVjTVCbGuO2mMsRBK3sn/Uz9tCZFG+yndh5dByDbeQ0PkJULowXyec/IeCE2ldOV3WyDSaisNoT5vh0jzFSrPUd9uBJGW+ZRufXOIjKYxcq5VIKDcdJznOzQYIo5FlM49FCKbaYylzSHS8Jkqnq9qZgMIKP0KKN1qCHTx0hAFYywQScnghT67DCKt0ildaRdU9wqNsfVXEDGP9vJC7uEmCFjHl1E29QVUc+lBGsLztAkisZt4sdUuiFzxGaXbn4iLTSuhITJ7Qqh7BS9W0RkizjkeylYwDhdptMpPI1S9FQWh+axuLoT6H6BsvqUuXKjvXhqi6LcQanqE1R1oChHXGj9l29MLF7BM99AQe6IgNK6C1VXcB6HRxZTNM92C87V9j4ZQ74eQa4PK6tQNLoi49lC6NZfgPMqgbBoiuxmEhh6jyLGhEJpK6XIGKzinwUwaY54dIs55Hop45zshkpRL6aY4cE6LLTRETl8FIl22UWxbV4g4Xqd06Qk4p2s5DbEiESLme4spVjzODAFlkIeylXbBOY/QEKWpCkQSlzKQZYkQSVpF6R7BOZtpiA8vg4jS/xQDKRligoD1/nLK9gn+r1EhjVD+tB0izjkM7MUoiHTdRtnczXDWYJVG2N8LQomHGNi3LSESNa+Sso3AWfNpBN8KB4RG+ajhHggNO0LZ/oafufbSCIU3QciylVp2WyHS4F0/JdtjwRm9v6MRdjkgdG0JtZQOgFBqMSXL7okzxhfQCA9ByJJWSS1Vf7dApMkuSlY8GWe8WkUD5LaEUPJOatvXFUJPUTLfYitOa7SORlhoh9CD+dRWMg1CbSoo2aYWOK3HLhqguCeEElaoDGJDe4jYF1GyzL44bdQJGmBZC4goNx9nMDmjTRBQBpZQrtxU/Mg03Uv5isZYINLwmSoGtbAxRFqlUy7vdBOAmAU0wNZfQSglg8Ht7wIR+0Q35VoQAyB5PeXzPGeHiPlOL4OrmmCDyFVfUK71yQC676Z8+3tBKHYD9djWBCKOF32Uav81AG74ntL5ltshdFUFdRkCocGHKFX+EEAZWUnpCodDbA71eQdCMe/5KVWqCfZHKd9XLgjFHKA+eZdDaFwJpZrqQMx8yvdHiN1RTn28MyEUe5BSLYxD05WULr8xhKxr/dRpRwKEZlGqlU3RJpPSvWSD0OCj1OvUvRBqU0iZvmmL9j9QtpN9FIjYnq2gXv43G0HE/jplyk9GCqVb0QJCKVuo377+EDENK6NMKehD2crHWSA06hT1806xQaTVeso0BKmU7bMrINZ49kmVun3eCSLWh6oo0e/wACXzzLYiAPvd+6mb5y4LRLpup0QP4wVKdqA/Ahv4nyrqtdIFkQZ/9VKeNKRRLt87MQjMdMVrZdSp+NcQ+u1RypOGzZSr6A5oURJmFlCnZyHUZINKaTYjg3LtiYE2+01ZfupyJA4iyrgSSpOBDMo1AUF13lxBPSp+B6G4/ZQmAxmU6mQiglLaL8yjDv70WAjNpjQZyKBUi+zQofnkoyqDOzYYQpcWU5YM5FCm4v4K9IgelsngKudbIWJ/l7KUQKVMq5Ogj/myTR4Gtb0rRJTBlZQFlKns92boFf9srsogyidYINIynbKAMv3nV9Av9v79fgaxPAkijkkVlASUyP1cFELgGLCVQeT2UyBy1U5KAkqUdQNC0/ltBjHbCRHXAh/lAOXxrYxGaJSmMwtVavk2ESLKTUcpByhP4a0ImfWOXX5quQ9CDdf4KYMXZZTmq4YIQ58NldSwIwpC40soQxb2UZopCMvlrxYysPIbIJSQSRkykEFZ8pMg1sEMLUrzqd8zIN8iiM2lDBnYQVn+YYOQddU/mpmgxT48089AMrtAqJOXEuzA+5SkeIACocHHqjb2dkBT53UVDKD4cTNEbG9QgveRRklWtICQ7dkK+r68KxqaWizIYQAftIaIabibkUtDGuVwP2iDUMoW/ujoYy5oUZpOPESxb2+GUJuPGLk0zKQc27pALLWQp+UtiIOm6EG7VIr4Xm4CEcejlYzYVIyhFN65Dgi1eFPlTzzrOpuhxZy4sZIiB7pD6LqvGbExGEIpDg6CkNLrO561+5ZoaHLO/8FPgUk2iDj/WsVI3YoUyuBbFgUhx1M85/DUaGhyjd3tY3UZTSB063FGKgXtf6AExX+AWPw+nqdwbhNocgzY7GM1lUMg1HStn5H5oT3aZFKC3Y0gNsLH81Us7QhNpuR/srq3IfZwCSOT2QYJ6yjBNIiZ1vFCVRkDLdAU90S+yovkt4RQ0lFG5t2miFvIyOW3hljnUl4sd5wLmpy376zkhSpnmSD0JCOzuDEcUxm5BTaIvVDFaoqfaglNlr4rvbyAuqMlhFLKGZGpDphSGbGywQqE2u6kQOniX0Nbu3keXiB3DITsaxmRVBMwIIeRei8RYveeooj7o35maGoy5STP53s9FiKm2zyMQM4AANfsZ4Qq7rNCKPYtlUK+o3c7ocn+m10+nuebARBq9ykjsLs7gOT1jNC2LhAbcoiBVDzRFNpS3injOZV/joKIY5KH4VufDCBmASPjecYOoQYzqxiQ55VOZmiK/0sez/n4Ughds5vhezUOgGm6lxE5PBRiHT+lhoq119uhqcFDB/h/pSPMEIld6Ge4vE9a8aPUXEZCTXdByHxLObVU7rnTCk3O327z8ay3XBAa8S3DlZuK0/pmMhJFqRCLeYfa1OKJDgVaLJctKefPPJdDKP5DlWHK7IvTWmxiJL6Og1jnCgbjfSXZDE3OGTn82TyIPVDCMG1sjtOsi32MwDQEMJfBed7vbYMm69hdPv4kuwmEEg8wPL5/4ozJxQxfcVuIubKog++L0VZosvVb5+Fp7rsgNp/hKZ6MM/p9x/C9bYPYKDd1yX4U2swpr3r4IzXdDqHOFQzLd/1whiuTYSsboEDI/L5KfYrTGinQojT8Y7lK8uj1EHKkMyx7XfjZ6wzb2iSI9T5MvXzrutugyTTo60qy8m92iCg3VTAcf8NZdzNcZeNtELI9XUb9tt9ugybT1StLyU87Q6jNFoZjBM5q5maYdnSDWPJmhuLYH+3Q1m5OAQvvt0LEOaWKoXM3w/99wvD45kdB7PYchiT/mXhoazw2n8uTINTnG4buC5zzBMNzaAjE4hepDE3ZvzuboMk26OsTfRWIxC5SGbIncU5XD8PhX9UQQsq1hxmyL4faoS35zacbQOjW4wxVaReck7SN4Si8G2KOxxmG7HEuaEsc0xBCLTb4GaL0BJzTYCbDsbcJxJrsYDjyZrSAthgTxCaXMkRTHDhHuamAYZiJAIZ6GZaixZciPK2+ZWiyb1BwnkveZ+iKW0NMWc4webdeZ0U4lJcYmvfa4nyWP3kZssVWiHUsY9i+HeNCOC5zMxSe6RZcYHAWQ1U0SIHYjEqGr/CJFgiD7QOGYm9fXKhFusoQrUuCWOJnKiNQlNbJhJCZbqukfr5ljXAh0/QShqbyIRvE7sxhRMo29jQhZO0yqF/RBFzs0oMMzVdXQyzmTT8j4zs+zIJQOaf5qds3SahmIUNSOdcJsf77GLGKh+IRqp67qZc6F9Vd5WUoDg+FmHO6m5ErTks2ITSNXq2iTmUdUZ1tJ0PgX9MYYh02UYaKtT3MCM3t31Kn1RD5A0NQfC/EzLeUUgrf18MQmmZbqI9nKERabaV+hxtDzPUaZcmZbEMolMdKqcsnSRBxTPJQt+kIoGM+pSn9WxszQtDuIPUov9sCoSt3Uq/itgjgKUrkfudaC0LwEvVY1x5irrle6rTMCjFXJmWq2nEbQtDNw+DyH7QigH6Z1MczSIHYTW7KdfghO3RzfsjgtndGILYFXuqyuRXETEv9lCx3doICnZQRfgZTNsuCgLpmUQ/3eCvEeh+mdJUrupmhU9vPGcznzaHhRZU67LgSYtany2iAz260Qp+oaZXUpt4FLe1zGFzl/IYQS95MQxy4Jxb69PmG2vZEQ9MMBndkGAIYlUNDqN/NagJdGv2Lmjwjoa3dTgajro+BWPwiPw1SvritAh2U0SeoQV3VDNosd5UyiMLfQ0y59jCN8/n1VuiQuFFlYMcGmRBE63f81LYnHmKOx2mkI3fGQIc/ljIg99xYBGO6PZvankYA8TtoqO+faIbgOhxmQF90Q3Cx//RSi7sjAviNh8bK/3trBGV+nYEUTrRCh8sPUMsKO8SUZTSaZ/tlCoK5i4FsagxdRnoYmPsGBWIdy2m8vKHRCKIlA8hNgT6O1QxscysEMKOKNSB3SiK02fMo5J4CvXpmMxD3BDvEEreprAkFr7RToMW2k0KrEqFX1OOVDOC/PRHAnTmsGeUf/BpabJkUyR5mhm5Jb6kUUl9uADHXEj9riC9zkBmBOSopUPbnaISgx+d+ihwaigCu38eak/dYYwWBXEKByqXNEZIxeRTwr4mHmGO6mzWoaH4HEwJ4hAI7uyM0MQtUVld0HwJI3sQaVfruVRCzfczqKm5HqBK/ZHUHkiBmvqWENcv3xUAIDc9jdS86ELK+uazmLwrEXP9kTVMPjY9Cdc0/8PNi6oY2CJ3t7hxepDwJAXTMZ80rmtvGhIs0eb6UF/Pv6IpwNJ5Tygu9Y0EAf2Zt8K7sgQs1mVXMi6lZt5gRlvarK3m+smEKxBpmsnZsu60BztN2UTGrKZjcAGG6YifP992kOwJ4wsvaoWa/1seOnyU8+FEVq/G/0BjhUq7J43mqivIDKGWtqcz5ZFq3WLu9zZCXvipWWY26xoUI/OYk67fKDc0QCedDP7A+82/pqiAijWfls/5S/zvQhAg1m1vKeuvgjXZEzPWun/VUfi8LJIha42W9dHIk5Gi5vIL10PHxTsihJL9dwXrn+AMuyGJKXu5lPXPwVhfkUVou9bFeyetlgVwvlLL+8GX1gmyuOSdZX3i3XG+BdPFTjrN+cK++2gQDuEYfZn3gX9LBBEPYeh9TWef5ZjeGYS75qIJ1m+/YH+wwUOuXf1BZh3m23OKEoZo+cFBlneVf3M0Cg0XdkMm6yjMjCcYzpfzbz7pIPZbaEDUietw+H+ucgiWdUFOsA1d7WMdkTW6CGtR6djbrkor0m1Czom/eWMU64+j0S82oYZZWfylk3eDb0DNKQS1I2VCgsta5901CbWnw8KflrF3+Y2ldzKg11iuePqKyFlUsvdmFWtWw19+LWGsyxrRErYvru87L2qAefbSdFXWBbdDaPNY09+FpsagzHPd+fMrPGlT65fyuqEtMl4x9+xRriv+TKd2dqGNMSQP/XsSa4P14Qicb6qK4Hmm5Ko2llq+5taUddVbCIztyvDSKvzBrTkfUcbHDF2zPV2kA7553HkxSUPfZO499PauKkn235vFeMagvmvWZuDxXpTSl7z/W/xIz6hHFHt9+1OoclZFTyz6edHkzB+qj6Ouf+W92vkdlmPxF2V++PDwB9Znlqnvmrd11wstQeb/ftXHxxKud+AVo1GPUk6+u351DnXwnv/pg4ZTRPZrjl8Mal9x9wB2PLlz3TT41+HMy0/817Y5B3TrE4hdIsccltE1OGfK7h9Pe+jQjI2NPOX9SkpGRsSkt7al7hqd0aJPQyGlCDfofLLNSzLkO9cYAAAAldEVYdGRhdGU6Y3JlYXRlADIwMjEtMDUtMzFUMDA6MzU6MDcrMDA6MDBioNZWAAAAJXRFWHRkYXRlOm1vZGlmeQAyMDIxLTA1LTMxVDAwOjM1OjA3KzAwOjAwE/1u6gAAAABJRU5ErkJggg==;" parent="JEBXCWIfqeOVVR91bjjy-33" vertex="1">
          <mxGeometry x="10" y="5" width="50" height="50" as="geometry" />
        </mxCell>
        <mxCell id="JEBXCWIfqeOVVR91bjjy-40" value="Rola Ansible, którą chcemy przetestować" style="shape=callout;whiteSpace=wrap;html=1;perimeter=calloutPerimeter;position2=1;" parent="1" vertex="1">
          <mxGeometry x="80" y="-49.99999999999997" width="120" height="80" as="geometry" />
        </mxCell>
        <mxCell id="JEBXCWIfqeOVVR91bjjy-46" style="edgeStyle=orthogonalEdgeStyle;rounded=0;orthogonalLoop=1;jettySize=auto;html=1;" parent="1" source="JEBXCWIfqeOVVR91bjjy-34" target="JEBXCWIfqeOVVR91bjjy-43" edge="1">
          <mxGeometry relative="1" as="geometry" />
        </mxCell>
        <mxCell id="JEBXCWIfqeOVVR91bjjy-47" value="Gitlab-CI&lt;br&gt;uruchamia molecule" style="shape=callout;whiteSpace=wrap;html=1;perimeter=calloutPerimeter;position2=1;" parent="1" vertex="1">
          <mxGeometry x="330" y="-49.99999999999997" width="120" height="80" as="geometry" />
        </mxCell>
        <mxCell id="JEBXCWIfqeOVVR91bjjy-48" value="" style="shadow=0;dashed=0;html=1;strokeColor=none;fillColor=#4495D1;labelPosition=center;verticalLabelPosition=bottom;verticalAlign=top;align=center;outlineConnect=0;shape=mxgraph.veeam.vm_linux;" parent="1" vertex="1">
          <mxGeometry x="490" y="202.4" width="57.2" height="55.2" as="geometry" />
        </mxCell>
        <mxCell id="JEBXCWIfqeOVVR91bjjy-49" value="" style="shadow=0;dashed=0;html=1;strokeColor=none;fillColor=#4495D1;labelPosition=center;verticalLabelPosition=bottom;verticalAlign=top;align=center;outlineConnect=0;shape=mxgraph.veeam.vm_linux;" parent="1" vertex="1">
          <mxGeometry x="490" y="272.40000000000003" width="57.2" height="55.2" as="geometry" />
        </mxCell>
        <mxCell id="JEBXCWIfqeOVVR91bjjy-50" value="" style="shadow=0;dashed=0;html=1;strokeColor=none;fillColor=#4495D1;labelPosition=center;verticalLabelPosition=bottom;verticalAlign=top;align=center;outlineConnect=0;shape=mxgraph.veeam.vm_linux;" parent="1" vertex="1">
          <mxGeometry x="490" y="342.40000000000003" width="57.2" height="55.2" as="geometry" />
        </mxCell>
        <mxCell id="JEBXCWIfqeOVVR91bjjy-53" style="edgeStyle=orthogonalEdgeStyle;rounded=0;orthogonalLoop=1;jettySize=auto;html=1;" parent="1" source="JEBXCWIfqeOVVR91bjjy-43" target="JEBXCWIfqeOVVR91bjjy-48" edge="1">
          <mxGeometry relative="1" as="geometry">
            <Array as="points">
              <mxPoint x="474" y="210" />
            </Array>
          </mxGeometry>
        </mxCell>
        <mxCell id="JEBXCWIfqeOVVR91bjjy-54" style="edgeStyle=orthogonalEdgeStyle;rounded=0;orthogonalLoop=1;jettySize=auto;html=1;" parent="1" source="JEBXCWIfqeOVVR91bjjy-43" target="JEBXCWIfqeOVVR91bjjy-49" edge="1">
          <mxGeometry relative="1" as="geometry">
            <Array as="points">
              <mxPoint x="474" y="280" />
            </Array>
          </mxGeometry>
        </mxCell>
        <mxCell id="JEBXCWIfqeOVVR91bjjy-55" style="edgeStyle=orthogonalEdgeStyle;rounded=0;orthogonalLoop=1;jettySize=auto;html=1;exitX=0.5;exitY=1;exitDx=0;exitDy=0;" parent="1" source="JEBXCWIfqeOVVR91bjjy-43" target="JEBXCWIfqeOVVR91bjjy-50" edge="1">
          <mxGeometry relative="1" as="geometry">
            <Array as="points">
              <mxPoint x="474" y="350" />
            </Array>
          </mxGeometry>
        </mxCell>
        <mxCell id="JEBXCWIfqeOVVR91bjjy-59" value="Utworzenie vm&lt;br&gt;&amp;nbsp;z template&lt;br&gt;na czas testów" style="shape=callout;whiteSpace=wrap;html=1;perimeter=calloutPerimeter;position2=0;" parent="1" vertex="1">
          <mxGeometry x="534" y="118.61000000000004" width="120" height="80" as="geometry" />
        </mxCell>
        <mxCell id="JEBXCWIfqeOVVR91bjjy-65" style="edgeStyle=orthogonalEdgeStyle;rounded=0;orthogonalLoop=1;jettySize=auto;html=1;exitX=0;exitY=0.5;exitDx=0;exitDy=0;fillColor=#f8cecc;strokeColor=#b85450;strokeWidth=3;" parent="1" source="JEBXCWIfqeOVVR91bjjy-61" target="JEBXCWIfqeOVVR91bjjy-48" edge="1">
          <mxGeometry relative="1" as="geometry">
            <Array as="points">
              <mxPoint x="630" y="300" />
              <mxPoint x="630" y="220" />
            </Array>
          </mxGeometry>
        </mxCell>
        <mxCell id="JEBXCWIfqeOVVR91bjjy-66" style="edgeStyle=orthogonalEdgeStyle;rounded=0;orthogonalLoop=1;jettySize=auto;html=1;fillColor=#f8cecc;strokeColor=#b85450;strokeWidth=3;" parent="1" source="JEBXCWIfqeOVVR91bjjy-61" target="JEBXCWIfqeOVVR91bjjy-49" edge="1">
          <mxGeometry relative="1" as="geometry" />
        </mxCell>
        <mxCell id="JEBXCWIfqeOVVR91bjjy-67" style="edgeStyle=orthogonalEdgeStyle;rounded=0;orthogonalLoop=1;jettySize=auto;html=1;fillColor=#f8cecc;strokeColor=#b85450;strokeWidth=3;" parent="1" source="JEBXCWIfqeOVVR91bjjy-61" target="JEBXCWIfqeOVVR91bjjy-50" edge="1">
          <mxGeometry relative="1" as="geometry">
            <Array as="points">
              <mxPoint x="630" y="300" />
              <mxPoint x="630" y="360" />
            </Array>
          </mxGeometry>
        </mxCell>
        <mxCell id="JEBXCWIfqeOVVR91bjjy-69" value="" style="shape=curlyBracket;whiteSpace=wrap;html=1;rounded=1;labelPosition=left;verticalLabelPosition=middle;align=right;verticalAlign=middle;rotation=-90;" parent="1" vertex="1">
          <mxGeometry x="620.3" y="246.1" width="20" height="387.6" as="geometry" />
        </mxCell>
        <mxCell id="JEBXCWIfqeOVVR91bjjy-70" value="testy wykonywane w ramach Gitlab-CI&lt;br&gt;z poziomu repozytorium Ansible role" style="text;html=1;align=center;verticalAlign=middle;resizable=0;points=[];autosize=1;strokeColor=none;fillColor=none;" parent="1" vertex="1">
          <mxGeometry x="510" y="450" width="230" height="40" as="geometry" />
        </mxCell>
        <mxCell id="RUP9mUPeo9Vmeu-AixMu-1" style="edgeStyle=orthogonalEdgeStyle;rounded=0;orthogonalLoop=1;jettySize=auto;html=1;entryX=0.5;entryY=0;entryDx=0;entryDy=0;" parent="1" source="JEBXCWIfqeOVVR91bjjy-43" target="JEBXCWIfqeOVVR91bjjy-61" edge="1">
          <mxGeometry relative="1" as="geometry" />
        </mxCell>
        <mxCell id="JEBXCWIfqeOVVR91bjjy-68" value="Testwanie roli" style="shape=callout;whiteSpace=wrap;html=1;perimeter=calloutPerimeter;position2=0.33;" parent="1" vertex="1">
          <mxGeometry x="700" y="202.40000000000006" width="120" height="80" as="geometry" />
        </mxCell>
        <mxCell id="RUP9mUPeo9Vmeu-AixMu-2" value="molecule converge" style="text;html=1;align=center;verticalAlign=middle;resizable=0;points=[];autosize=1;strokeColor=#666666;fillColor=#f5f5f5;fontColor=#333333;" parent="1" vertex="1">
          <mxGeometry x="590" y="10" width="120" height="30" as="geometry" />
        </mxCell>
        <UserObject label="" link="https://gitlab.com/pl.rachuna-net/cicd/components/unit-test/-/blob/main/templates/molecule.yml?ref_type=heads" id="JEBXCWIfqeOVVR91bjjy-42">
          <mxCell style="group" parent="1" vertex="1" connectable="0">
            <mxGeometry x="414" y="20" width="120" height="60" as="geometry" />
          </mxCell>
        </UserObject>
        <mxCell id="JEBXCWIfqeOVVR91bjjy-43" value="" style="rounded=1;whiteSpace=wrap;html=1;" parent="JEBXCWIfqeOVVR91bjjy-42" vertex="1">
          <mxGeometry width="120" height="60" as="geometry" />
        </mxCell>
        <mxCell id="JEBXCWIfqeOVVR91bjjy-41" value="" style="image;aspect=fixed;html=1;points=[];align=center;fontSize=12;image=img/lib/azure2/general/Load_Test.svg;" parent="JEBXCWIfqeOVVR91bjjy-42" vertex="1">
          <mxGeometry x="35" y="5.74" width="50" height="48.53" as="geometry" />
        </mxCell>
        <UserObject label="" link="https://gitlab.com/pl.rachuna-net/infrastructure/ansible/roles/configure-ssh/-/blob/main/molecule/default/tests/test_sshd_config.py" id="JEBXCWIfqeOVVR91bjjy-60">
          <mxCell style="group" parent="1" vertex="1" connectable="0">
            <mxGeometry x="660" y="270" width="120" height="60" as="geometry" />
          </mxCell>
        </UserObject>
        <mxCell id="JEBXCWIfqeOVVR91bjjy-61" value="" style="rounded=1;whiteSpace=wrap;html=1;" parent="JEBXCWIfqeOVVR91bjjy-60" vertex="1">
          <mxGeometry width="120" height="60" as="geometry" />
        </mxCell>
        <mxCell id="JEBXCWIfqeOVVR91bjjy-62" value="" style="image;aspect=fixed;html=1;points=[];align=center;fontSize=12;image=img/lib/azure2/general/Load_Test.svg;" parent="JEBXCWIfqeOVVR91bjjy-60" vertex="1">
          <mxGeometry x="35" y="5.74" width="50" height="48.53" as="geometry" />
        </mxCell>
      </root>
    </mxGraphModel>
  </diagram>
</mxfile>
